<?xml version="1.0" encoding="utf-8" standalone="no"?>
<!DOCTYPE svg PUBLIC "-//W3C//DTD SVG 1.1//EN"
  "http://www.w3.org/Graphics/SVG/1.1/DTD/svg11.dtd">
<svg xmlns:xlink="http://www.w3.org/1999/xlink" width="460.8pt" height="345.6pt" viewBox="0 0 460.8 345.6" xmlns="http://www.w3.org/2000/svg" version="1.1">
 <metadata>
  <rdf:RDF xmlns:dc="http://purl.org/dc/elements/1.1/" xmlns:cc="http://creativecommons.org/ns#" xmlns:rdf="http://www.w3.org/1999/02/22-rdf-syntax-ns#">
   <cc:Work>
    <dc:type rdf:resource="http://purl.org/dc/dcmitype/StillImage"/>
    <dc:date>2025-03-03T20:51:09.570622</dc:date>
    <dc:format>image/svg+xml</dc:format>
    <dc:creator>
     <cc:Agent>
      <dc:title>Matplotlib v3.10.0, https://matplotlib.org/</dc:title>
     </cc:Agent>
    </dc:creator>
   </cc:Work>
  </rdf:RDF>
 </metadata>
 <defs>
  <style type="text/css">*{stroke-linejoin: round; stroke-linecap: butt}</style>
 </defs>
 <g id="figure_1">
  <g id="patch_1">
   <path d="M 0 345.6 
L 460.8 345.6 
L 460.8 0 
L 0 0 
z
" style="fill: #ffffff"/>
  </g>
  <g id="axes_1">
   <g id="patch_2">
    <path d="M 103.104 307.584 
L 369.216 307.584 
L 369.216 41.472 
L 103.104 41.472 
z
" style="fill: #ffffff"/>
   </g>
   <g id="PathCollection_1">
    <defs>
     <path id="m6f1de897be" d="M 0 1.581139 
C 0.419323 1.581139 0.821528 1.41454 1.118034 1.118034 
C 1.41454 0.821528 1.581139 0.419323 1.581139 0 
C 1.581139 -0.419323 1.41454 -0.821528 1.118034 -1.118034 
C 0.821528 -1.41454 0.419323 -1.581139 0 -1.581139 
C -0.419323 -1.581139 -0.821528 -1.41454 -1.118034 -1.118034 
C -1.41454 -0.821528 -1.581139 -0.419323 -1.581139 0 
C -1.581139 0.419323 -1.41454 0.821528 -1.118034 1.118034 
C -0.821528 1.41454 -0.419323 1.581139 0 1.581139 
z
" style="stroke: #0000ff"/>
    </defs>
    <g clip-path="url(#p2050a592cc)">
     <use xlink:href="#m6f1de897be" x="201.821643" y="179.68641" style="fill: #0000ff; stroke: #0000ff"/>
     <use xlink:href="#m6f1de897be" x="265.938008" y="179.050177" style="fill: #0000ff; stroke: #0000ff"/>
     <use xlink:href="#m6f1de897be" x="265.938008" y="179.474332" style="fill: #0000ff; stroke: #0000ff"/>
     <use xlink:href="#m6f1de897be" x="232.289398" y="177.735297" style="fill: #0000ff; stroke: #0000ff"/>
     <use xlink:href="#m6f1de897be" x="265.647998" y="185.412503" style="fill: #0000ff; stroke: #0000ff"/>
     <use xlink:href="#m6f1de897be" x="202.654455" y="182.23134" style="fill: #0000ff; stroke: #0000ff"/>
     <use xlink:href="#m6f1de897be" x="225.25061" y="183.758299" style="fill: #0000ff; stroke: #0000ff"/>
     <use xlink:href="#m6f1de897be" x="266.080654" y="182.358587" style="fill: #0000ff; stroke: #0000ff"/>
     <use xlink:href="#m6f1de897be" x="334.172091" y="188.424004" style="fill: #0000ff; stroke: #0000ff"/>
     <use xlink:href="#m6f1de897be" x="265.723887" y="185.115595" style="fill: #0000ff; stroke: #0000ff"/>
     <use xlink:href="#m6f1de897be" x="265.716176" y="185.115595" style="fill: #0000ff; stroke: #0000ff"/>
     <use xlink:href="#m6f1de897be" x="257.831885" y="186.642553" style="fill: #0000ff; stroke: #0000ff"/>
     <use xlink:href="#m6f1de897be" x="265.86092" y="179.559163" style="fill: #0000ff; stroke: #0000ff"/>
     <use xlink:href="#m6f1de897be" x="265.86092" y="179.856072" style="fill: #0000ff; stroke: #0000ff"/>
     <use xlink:href="#m6f1de897be" x="265.86092" y="181.892016" style="fill: #0000ff; stroke: #0000ff"/>
     <use xlink:href="#m6f1de897be" x="265.86092" y="183.546221" style="fill: #0000ff; stroke: #0000ff"/>
     <use xlink:href="#m6f1de897be" x="265.647998" y="180.789213" style="fill: #0000ff; stroke: #0000ff"/>
     <use xlink:href="#m6f1de897be" x="225.25061" y="184.479362" style="fill: #0000ff; stroke: #0000ff"/>
     <use xlink:href="#m6f1de897be" x="202.654455" y="180.577136" style="fill: #0000ff; stroke: #0000ff"/>
     <use xlink:href="#m6f1de897be" x="266.080654" y="178.45636" style="fill: #0000ff; stroke: #0000ff"/>
     <use xlink:href="#m6f1de897be" x="175.311002" y="180.831629" style="fill: #0000ff; stroke: #0000ff"/>
     <use xlink:href="#m6f1de897be" x="265.680488" y="182.401002" style="fill: #0000ff; stroke: #0000ff"/>
     <use xlink:href="#m6f1de897be" x="265.680488" y="180.365058" style="fill: #0000ff; stroke: #0000ff"/>
     <use xlink:href="#m6f1de897be" x="115.52439" y="177.60805" style="fill: #0000ff; stroke: #0000ff"/>
     <use xlink:href="#m6f1de897be" x="266.26702" y="178.8381" style="fill: #0000ff; stroke: #0000ff"/>
     <use xlink:href="#m6f1de897be" x="335.276791" y="185.030764" style="fill: #0000ff; stroke: #0000ff"/>
     <use xlink:href="#m6f1de897be" x="356.827521" y="183.291728" style="fill: #0000ff; stroke: #0000ff"/>
     <use xlink:href="#m6f1de897be" x="265.618858" y="181.722354" style="fill: #0000ff; stroke: #0000ff"/>
     <use xlink:href="#m6f1de897be" x="265.86092" y="175.52969" style="fill: #0000ff; stroke: #0000ff"/>
     <use xlink:href="#m6f1de897be" x="265.86092" y="176.971818" style="fill: #0000ff; stroke: #0000ff"/>
     <use xlink:href="#m6f1de897be" x="265.86092" y="176.123507" style="fill: #0000ff; stroke: #0000ff"/>
     <use xlink:href="#m6f1de897be" x="265.86092" y="175.614521" style="fill: #0000ff; stroke: #0000ff"/>
     <use xlink:href="#m6f1de897be" x="334.172091" y="187.151539" style="fill: #0000ff; stroke: #0000ff"/>
     <use xlink:href="#m6f1de897be" x="265.716176" y="184.903517" style="fill: #0000ff; stroke: #0000ff"/>
     <use xlink:href="#m6f1de897be" x="265.723887" y="186.812215" style="fill: #0000ff; stroke: #0000ff"/>
     <use xlink:href="#m6f1de897be" x="257.831885" y="183.079651" style="fill: #0000ff; stroke: #0000ff"/>
     <use xlink:href="#m6f1de897be" x="266.26702" y="188.593666" style="fill: #0000ff; stroke: #0000ff"/>
     <use xlink:href="#m6f1de897be" x="356.827521" y="185.963905" style="fill: #0000ff; stroke: #0000ff"/>
     <use xlink:href="#m6f1de897be" x="335.276791" y="186.7698" style="fill: #0000ff; stroke: #0000ff"/>
     <use xlink:href="#m6f1de897be" x="265.618858" y="187.109124" style="fill: #0000ff; stroke: #0000ff"/>
     <use xlink:href="#m6f1de897be" x="174.053661" y="181.255784" style="fill: #0000ff; stroke: #0000ff"/>
     <use xlink:href="#m6f1de897be" x="265.773984" y="186.854631" style="fill: #0000ff; stroke: #0000ff"/>
     <use xlink:href="#m6f1de897be" x="265.773984" y="187.872603" style="fill: #0000ff; stroke: #0000ff"/>
     <use xlink:href="#m6f1de897be" x="185.235569" y="185.030764" style="fill: #0000ff; stroke: #0000ff"/>
     <use xlink:href="#m6f1de897be" x="265.86092" y="177.735297" style="fill: #0000ff; stroke: #0000ff"/>
     <use xlink:href="#m6f1de897be" x="265.86092" y="176.886987" style="fill: #0000ff; stroke: #0000ff"/>
     <use xlink:href="#m6f1de897be" x="265.86092" y="178.413945" style="fill: #0000ff; stroke: #0000ff"/>
     <use xlink:href="#m6f1de897be" x="265.86092" y="179.262255" style="fill: #0000ff; stroke: #0000ff"/>
     <use xlink:href="#m6f1de897be" x="265.86092" y="182.401002" style="fill: #0000ff; stroke: #0000ff"/>
     <use xlink:href="#m6f1de897be" x="265.86092" y="181.340615" style="fill: #0000ff; stroke: #0000ff"/>
     <use xlink:href="#m6f1de897be" x="265.86092" y="178.795684" style="fill: #0000ff; stroke: #0000ff"/>
     <use xlink:href="#m6f1de897be" x="265.86092" y="179.983319" style="fill: #0000ff; stroke: #0000ff"/>
     <use xlink:href="#m6f1de897be" x="265.86092" y="177.014233" style="fill: #0000ff; stroke: #0000ff"/>
     <use xlink:href="#m6f1de897be" x="265.86092" y="176.971818" style="fill: #0000ff; stroke: #0000ff"/>
     <use xlink:href="#m6f1de897be" x="265.86092" y="178.8381" style="fill: #0000ff; stroke: #0000ff"/>
     <use xlink:href="#m6f1de897be" x="265.86092" y="177.692881" style="fill: #0000ff; stroke: #0000ff"/>
     <use xlink:href="#m6f1de897be" x="265.86092" y="176.632493" style="fill: #0000ff; stroke: #0000ff"/>
     <use xlink:href="#m6f1de897be" x="265.86092" y="176.081092" style="fill: #0000ff; stroke: #0000ff"/>
     <use xlink:href="#m6f1de897be" x="265.86092" y="174.851042" style="fill: #0000ff; stroke: #0000ff"/>
     <use xlink:href="#m6f1de897be" x="265.86092" y="179.219839" style="fill: #0000ff; stroke: #0000ff"/>
     <use xlink:href="#m6f1de897be" x="212.965351" y="177.904959" style="fill: #0000ff; stroke: #0000ff"/>
     <use xlink:href="#m6f1de897be" x="265.917313" y="179.516748" style="fill: #0000ff; stroke: #0000ff"/>
     <use xlink:href="#m6f1de897be" x="265.917313" y="176.420416" style="fill: #0000ff; stroke: #0000ff"/>
     <use xlink:href="#m6f1de897be" x="244.376208" y="177.820128" style="fill: #0000ff; stroke: #0000ff"/>
    </g>
   </g>
   <g id="PathCollection_2">
    <defs>
     <path id="m4e8d5bdac6" d="M 0 1.581139 
C 0.419323 1.581139 0.821528 1.41454 1.118034 1.118034 
C 1.41454 0.821528 1.581139 0.419323 1.581139 0 
C 1.581139 -0.419323 1.41454 -0.821528 1.118034 -1.118034 
C 0.821528 -1.41454 0.419323 -1.581139 0 -1.581139 
C -0.419323 -1.581139 -0.821528 -1.41454 -1.118034 -1.118034 
C -1.41454 -0.821528 -1.581139 -0.419323 -1.581139 0 
C -1.581139 0.419323 -1.41454 0.821528 -1.118034 1.118034 
C -0.821528 1.41454 -0.419323 1.581139 0 1.581139 
z
" style="stroke: #ff0000"/>
    </defs>
    <g clip-path="url(#p2050a592cc)">
     <use xlink:href="#m4e8d5bdac6" x="201.808594" y="181.001291" style="fill: #ff0000; stroke: #ff0000"/>
     <use xlink:href="#m4e8d5bdac6" x="265.859378" y="181.722354" style="fill: #ff0000; stroke: #ff0000"/>
     <use xlink:href="#m4e8d5bdac6" x="265.859378" y="181.340615" style="fill: #ff0000; stroke: #ff0000"/>
     <use xlink:href="#m4e8d5bdac6" x="232.28684" y="181.934432" style="fill: #ff0000; stroke: #ff0000"/>
     <use xlink:href="#m4e8d5bdac6" x="265.865184" y="185.53975" style="fill: #ff0000; stroke: #ff0000"/>
     <use xlink:href="#m4e8d5bdac6" x="202.678697" y="180.280227" style="fill: #ff0000; stroke: #ff0000"/>
     <use xlink:href="#m4e8d5bdac6" x="225.223208" y="186.38806" style="fill: #ff0000; stroke: #ff0000"/>
     <use xlink:href="#m4e8d5bdac6" x="265.856517" y="186.557722" style="fill: #ff0000; stroke: #ff0000"/>
     <use xlink:href="#m4e8d5bdac6" x="334.140135" y="186.600138" style="fill: #ff0000; stroke: #ff0000"/>
     <use xlink:href="#m4e8d5bdac6" x="265.863664" y="185.15801" style="fill: #ff0000; stroke: #ff0000"/>
     <use xlink:href="#m4e8d5bdac6" x="265.863819" y="184.521778" style="fill: #ff0000; stroke: #ff0000"/>
     <use xlink:href="#m4e8d5bdac6" x="257.858483" y="181.807185" style="fill: #ff0000; stroke: #ff0000"/>
     <use xlink:href="#m4e8d5bdac6" x="265.86092" y="183.164482" style="fill: #ff0000; stroke: #ff0000"/>
     <use xlink:href="#m4e8d5bdac6" x="265.86092" y="179.771241" style="fill: #ff0000; stroke: #ff0000"/>
     <use xlink:href="#m4e8d5bdac6" x="265.86092" y="180.831629" style="fill: #ff0000; stroke: #ff0000"/>
     <use xlink:href="#m4e8d5bdac6" x="265.86092" y="181.043706" style="fill: #ff0000; stroke: #ff0000"/>
     <use xlink:href="#m4e8d5bdac6" x="265.865184" y="179.050177" style="fill: #ff0000; stroke: #ff0000"/>
     <use xlink:href="#m4e8d5bdac6" x="225.223208" y="179.68641" style="fill: #ff0000; stroke: #ff0000"/>
     <use xlink:href="#m4e8d5bdac6" x="202.678697" y="180.577136" style="fill: #ff0000; stroke: #ff0000"/>
     <use xlink:href="#m4e8d5bdac6" x="265.856517" y="178.286698" style="fill: #ff0000; stroke: #ff0000"/>
     <use xlink:href="#m4e8d5bdac6" x="175.359806" y="178.201867" style="fill: #ff0000; stroke: #ff0000"/>
     <use xlink:href="#m4e8d5bdac6" x="265.864535" y="177.692881" style="fill: #ff0000; stroke: #ff0000"/>
     <use xlink:href="#m4e8d5bdac6" x="265.864535" y="176.844571" style="fill: #ff0000; stroke: #ff0000"/>
     <use xlink:href="#m4e8d5bdac6" x="115.2" y="176.462831" style="fill: #ff0000; stroke: #ff0000"/>
     <use xlink:href="#m4e8d5bdac6" x="265.852777" y="180.322643" style="fill: #ff0000; stroke: #ff0000"/>
     <use xlink:href="#m4e8d5bdac6" x="335.40322" y="183.164482" style="fill: #ff0000; stroke: #ff0000"/>
     <use xlink:href="#m4e8d5bdac6" x="357.12" y="183.588637" style="fill: #ff0000; stroke: #ff0000"/>
     <use xlink:href="#m4e8d5bdac6" x="265.86579" y="181.213368" style="fill: #ff0000; stroke: #ff0000"/>
     <use xlink:href="#m4e8d5bdac6" x="265.86092" y="171.542633" style="fill: #ff0000; stroke: #ff0000"/>
     <use xlink:href="#m4e8d5bdac6" x="265.86092" y="174.045148" style="fill: #ff0000; stroke: #ff0000"/>
     <use xlink:href="#m4e8d5bdac6" x="265.86092" y="173.408915" style="fill: #ff0000; stroke: #ff0000"/>
     <use xlink:href="#m4e8d5bdac6" x="265.86092" y="172.645436" style="fill: #ff0000; stroke: #ff0000"/>
     <use xlink:href="#m4e8d5bdac6" x="334.140135" y="182.358587" style="fill: #ff0000; stroke: #ff0000"/>
     <use xlink:href="#m4e8d5bdac6" x="265.863819" y="185.751828" style="fill: #ff0000; stroke: #ff0000"/>
     <use xlink:href="#m4e8d5bdac6" x="265.863664" y="189.654054" style="fill: #ff0000; stroke: #ff0000"/>
     <use xlink:href="#m4e8d5bdac6" x="257.858483" y="182.99482" style="fill: #ff0000; stroke: #ff0000"/>
     <use xlink:href="#m4e8d5bdac6" x="265.852777" y="188.678497" style="fill: #ff0000; stroke: #ff0000"/>
     <use xlink:href="#m4e8d5bdac6" x="357.12" y="184.649024" style="fill: #ff0000; stroke: #ff0000"/>
     <use xlink:href="#m4e8d5bdac6" x="335.40322" y="188.042265" style="fill: #ff0000; stroke: #ff0000"/>
     <use xlink:href="#m4e8d5bdac6" x="265.86579" y="188.890575" style="fill: #ff0000; stroke: #ff0000"/>
     <use xlink:href="#m4e8d5bdac6" x="173.821644" y="185.879074" style="fill: #ff0000; stroke: #ff0000"/>
     <use xlink:href="#m4e8d5bdac6" x="265.862661" y="187.109124" style="fill: #ff0000; stroke: #ff0000"/>
     <use xlink:href="#m4e8d5bdac6" x="265.862661" y="185.963905" style="fill: #ff0000; stroke: #ff0000"/>
     <use xlink:href="#m4e8d5bdac6" x="185.027269" y="182.188925" style="fill: #ff0000; stroke: #ff0000"/>
     <use xlink:href="#m4e8d5bdac6" x="265.86092" y="177.311142" style="fill: #ff0000; stroke: #ff0000"/>
     <use xlink:href="#m4e8d5bdac6" x="265.86092" y="178.371529" style="fill: #ff0000; stroke: #ff0000"/>
     <use xlink:href="#m4e8d5bdac6" x="265.86092" y="175.317613" style="fill: #ff0000; stroke: #ff0000"/>
     <use xlink:href="#m4e8d5bdac6" x="265.86092" y="181.043706" style="fill: #ff0000; stroke: #ff0000"/>
     <use xlink:href="#m4e8d5bdac6" x="265.86092" y="179.856072" style="fill: #ff0000; stroke: #ff0000"/>
     <use xlink:href="#m4e8d5bdac6" x="265.86092" y="177.98979" style="fill: #ff0000; stroke: #ff0000"/>
     <use xlink:href="#m4e8d5bdac6" x="265.86092" y="179.813657" style="fill: #ff0000; stroke: #ff0000"/>
     <use xlink:href="#m4e8d5bdac6" x="265.86092" y="179.601579" style="fill: #ff0000; stroke: #ff0000"/>
     <use xlink:href="#m4e8d5bdac6" x="265.86092" y="179.516748" style="fill: #ff0000; stroke: #ff0000"/>
     <use xlink:href="#m4e8d5bdac6" x="265.86092" y="176.590078" style="fill: #ff0000; stroke: #ff0000"/>
     <use xlink:href="#m4e8d5bdac6" x="265.86092" y="173.408915" style="fill: #ff0000; stroke: #ff0000"/>
     <use xlink:href="#m4e8d5bdac6" x="265.86092" y="178.8381" style="fill: #ff0000; stroke: #ff0000"/>
     <use xlink:href="#m4e8d5bdac6" x="265.86092" y="176.250754" style="fill: #ff0000; stroke: #ff0000"/>
     <use xlink:href="#m4e8d5bdac6" x="265.86092" y="176.208338" style="fill: #ff0000; stroke: #ff0000"/>
     <use xlink:href="#m4e8d5bdac6" x="265.86092" y="176.123507" style="fill: #ff0000; stroke: #ff0000"/>
     <use xlink:href="#m4e8d5bdac6" x="265.86092" y="176.335585" style="fill: #ff0000; stroke: #ff0000"/>
     <use xlink:href="#m4e8d5bdac6" x="213.001385" y="174.511718" style="fill: #ff0000; stroke: #ff0000"/>
     <use xlink:href="#m4e8d5bdac6" x="265.859791" y="180.025734" style="fill: #ff0000; stroke: #ff0000"/>
     <use xlink:href="#m4e8d5bdac6" x="265.859791" y="179.601579" style="fill: #ff0000; stroke: #ff0000"/>
     <use xlink:href="#m4e8d5bdac6" x="244.368735" y="183.588637" style="fill: #ff0000; stroke: #ff0000"/>
    </g>
   </g>
   <g id="matplotlib.axis_1">
    <g id="xtick_1">
     <g id="line2d_1">
      <defs>
       <path id="m2b8e1c659c" d="M 0 0 
L 0 3.5 
" style="stroke: #000000; stroke-width: 0.8"/>
      </defs>
      <g>
       <use xlink:href="#m2b8e1c659c" x="107.011747" y="307.584" style="stroke: #000000; stroke-width: 0.8"/>
      </g>
     </g>
     <g id="text_1">
      <!-- −0.08 -->
      <g transform="translate(91.68909 322.182437) scale(0.1 -0.1)">
       <defs>
        <path id="DejaVuSans-2212" d="M 678 2272 
L 4684 2272 
L 4684 1741 
L 678 1741 
L 678 2272 
z
" transform="scale(0.015625)"/>
        <path id="DejaVuSans-30" d="M 2034 4250 
Q 1547 4250 1301 3770 
Q 1056 3291 1056 2328 
Q 1056 1369 1301 889 
Q 1547 409 2034 409 
Q 2525 409 2770 889 
Q 3016 1369 3016 2328 
Q 3016 3291 2770 3770 
Q 2525 4250 2034 4250 
z
M 2034 4750 
Q 2819 4750 3233 4129 
Q 3647 3509 3647 2328 
Q 3647 1150 3233 529 
Q 2819 -91 2034 -91 
Q 1250 -91 836 529 
Q 422 1150 422 2328 
Q 422 3509 836 4129 
Q 1250 4750 2034 4750 
z
" transform="scale(0.015625)"/>
        <path id="DejaVuSans-2e" d="M 684 794 
L 1344 794 
L 1344 0 
L 684 0 
L 684 794 
z
" transform="scale(0.015625)"/>
        <path id="DejaVuSans-38" d="M 2034 2216 
Q 1584 2216 1326 1975 
Q 1069 1734 1069 1313 
Q 1069 891 1326 650 
Q 1584 409 2034 409 
Q 2484 409 2743 651 
Q 3003 894 3003 1313 
Q 3003 1734 2745 1975 
Q 2488 2216 2034 2216 
z
M 1403 2484 
Q 997 2584 770 2862 
Q 544 3141 544 3541 
Q 544 4100 942 4425 
Q 1341 4750 2034 4750 
Q 2731 4750 3128 4425 
Q 3525 4100 3525 3541 
Q 3525 3141 3298 2862 
Q 3072 2584 2669 2484 
Q 3125 2378 3379 2068 
Q 3634 1759 3634 1313 
Q 3634 634 3220 271 
Q 2806 -91 2034 -91 
Q 1263 -91 848 271 
Q 434 634 434 1313 
Q 434 1759 690 2068 
Q 947 2378 1403 2484 
z
M 1172 3481 
Q 1172 3119 1398 2916 
Q 1625 2713 2034 2713 
Q 2441 2713 2670 2916 
Q 2900 3119 2900 3481 
Q 2900 3844 2670 4047 
Q 2441 4250 2034 4250 
Q 1625 4250 1398 4047 
Q 1172 3844 1172 3481 
z
" transform="scale(0.015625)"/>
       </defs>
       <use xlink:href="#DejaVuSans-2212"/>
       <use xlink:href="#DejaVuSans-30" transform="translate(83.789062 0)"/>
       <use xlink:href="#DejaVuSans-2e" transform="translate(147.412109 0)"/>
       <use xlink:href="#DejaVuSans-30" transform="translate(179.199219 0)"/>
       <use xlink:href="#DejaVuSans-38" transform="translate(242.822266 0)"/>
      </g>
     </g>
    </g>
    <g id="xtick_2">
     <g id="line2d_2">
      <g>
       <use xlink:href="#m2b8e1c659c" x="146.72404" y="307.584" style="stroke: #000000; stroke-width: 0.8"/>
      </g>
     </g>
     <g id="text_2">
      <!-- −0.06 -->
      <g transform="translate(131.401384 322.182437) scale(0.1 -0.1)">
       <defs>
        <path id="DejaVuSans-36" d="M 2113 2584 
Q 1688 2584 1439 2293 
Q 1191 2003 1191 1497 
Q 1191 994 1439 701 
Q 1688 409 2113 409 
Q 2538 409 2786 701 
Q 3034 994 3034 1497 
Q 3034 2003 2786 2293 
Q 2538 2584 2113 2584 
z
M 3366 4563 
L 3366 3988 
Q 3128 4100 2886 4159 
Q 2644 4219 2406 4219 
Q 1781 4219 1451 3797 
Q 1122 3375 1075 2522 
Q 1259 2794 1537 2939 
Q 1816 3084 2150 3084 
Q 2853 3084 3261 2657 
Q 3669 2231 3669 1497 
Q 3669 778 3244 343 
Q 2819 -91 2113 -91 
Q 1303 -91 875 529 
Q 447 1150 447 2328 
Q 447 3434 972 4092 
Q 1497 4750 2381 4750 
Q 2619 4750 2861 4703 
Q 3103 4656 3366 4563 
z
" transform="scale(0.015625)"/>
       </defs>
       <use xlink:href="#DejaVuSans-2212"/>
       <use xlink:href="#DejaVuSans-30" transform="translate(83.789062 0)"/>
       <use xlink:href="#DejaVuSans-2e" transform="translate(147.412109 0)"/>
       <use xlink:href="#DejaVuSans-30" transform="translate(179.199219 0)"/>
       <use xlink:href="#DejaVuSans-36" transform="translate(242.822266 0)"/>
      </g>
     </g>
    </g>
    <g id="xtick_3">
     <g id="line2d_3">
      <g>
       <use xlink:href="#m2b8e1c659c" x="186.436334" y="307.584" style="stroke: #000000; stroke-width: 0.8"/>
      </g>
     </g>
     <g id="text_3">
      <!-- −0.04 -->
      <g transform="translate(171.113677 322.182437) scale(0.1 -0.1)">
       <defs>
        <path id="DejaVuSans-34" d="M 2419 4116 
L 825 1625 
L 2419 1625 
L 2419 4116 
z
M 2253 4666 
L 3047 4666 
L 3047 1625 
L 3713 1625 
L 3713 1100 
L 3047 1100 
L 3047 0 
L 2419 0 
L 2419 1100 
L 313 1100 
L 313 1709 
L 2253 4666 
z
" transform="scale(0.015625)"/>
       </defs>
       <use xlink:href="#DejaVuSans-2212"/>
       <use xlink:href="#DejaVuSans-30" transform="translate(83.789062 0)"/>
       <use xlink:href="#DejaVuSans-2e" transform="translate(147.412109 0)"/>
       <use xlink:href="#DejaVuSans-30" transform="translate(179.199219 0)"/>
       <use xlink:href="#DejaVuSans-34" transform="translate(242.822266 0)"/>
      </g>
     </g>
    </g>
    <g id="xtick_4">
     <g id="line2d_4">
      <g>
       <use xlink:href="#m2b8e1c659c" x="226.148627" y="307.584" style="stroke: #000000; stroke-width: 0.8"/>
      </g>
     </g>
     <g id="text_4">
      <!-- −0.02 -->
      <g transform="translate(210.825971 322.182437) scale(0.1 -0.1)">
       <defs>
        <path id="DejaVuSans-32" d="M 1228 531 
L 3431 531 
L 3431 0 
L 469 0 
L 469 531 
Q 828 903 1448 1529 
Q 2069 2156 2228 2338 
Q 2531 2678 2651 2914 
Q 2772 3150 2772 3378 
Q 2772 3750 2511 3984 
Q 2250 4219 1831 4219 
Q 1534 4219 1204 4116 
Q 875 4013 500 3803 
L 500 4441 
Q 881 4594 1212 4672 
Q 1544 4750 1819 4750 
Q 2544 4750 2975 4387 
Q 3406 4025 3406 3419 
Q 3406 3131 3298 2873 
Q 3191 2616 2906 2266 
Q 2828 2175 2409 1742 
Q 1991 1309 1228 531 
z
" transform="scale(0.015625)"/>
       </defs>
       <use xlink:href="#DejaVuSans-2212"/>
       <use xlink:href="#DejaVuSans-30" transform="translate(83.789062 0)"/>
       <use xlink:href="#DejaVuSans-2e" transform="translate(147.412109 0)"/>
       <use xlink:href="#DejaVuSans-30" transform="translate(179.199219 0)"/>
       <use xlink:href="#DejaVuSans-32" transform="translate(242.822266 0)"/>
      </g>
     </g>
    </g>
    <g id="xtick_5">
     <g id="line2d_5">
      <g>
       <use xlink:href="#m2b8e1c659c" x="265.86092" y="307.584" style="stroke: #000000; stroke-width: 0.8"/>
      </g>
     </g>
     <g id="text_5">
      <!-- 0.00 -->
      <g transform="translate(254.728108 322.182437) scale(0.1 -0.1)">
       <use xlink:href="#DejaVuSans-30"/>
       <use xlink:href="#DejaVuSans-2e" transform="translate(63.623047 0)"/>
       <use xlink:href="#DejaVuSans-30" transform="translate(95.410156 0)"/>
       <use xlink:href="#DejaVuSans-30" transform="translate(159.033203 0)"/>
      </g>
     </g>
    </g>
    <g id="xtick_6">
     <g id="line2d_6">
      <g>
       <use xlink:href="#m2b8e1c659c" x="305.573214" y="307.584" style="stroke: #000000; stroke-width: 0.8"/>
      </g>
     </g>
     <g id="text_6">
      <!-- 0.02 -->
      <g transform="translate(294.440401 322.182437) scale(0.1 -0.1)">
       <use xlink:href="#DejaVuSans-30"/>
       <use xlink:href="#DejaVuSans-2e" transform="translate(63.623047 0)"/>
       <use xlink:href="#DejaVuSans-30" transform="translate(95.410156 0)"/>
       <use xlink:href="#DejaVuSans-32" transform="translate(159.033203 0)"/>
      </g>
     </g>
    </g>
    <g id="xtick_7">
     <g id="line2d_7">
      <g>
       <use xlink:href="#m2b8e1c659c" x="345.285507" y="307.584" style="stroke: #000000; stroke-width: 0.8"/>
      </g>
     </g>
     <g id="text_7">
      <!-- 0.04 -->
      <g transform="translate(334.152695 322.182437) scale(0.1 -0.1)">
       <use xlink:href="#DejaVuSans-30"/>
       <use xlink:href="#DejaVuSans-2e" transform="translate(63.623047 0)"/>
       <use xlink:href="#DejaVuSans-30" transform="translate(95.410156 0)"/>
       <use xlink:href="#DejaVuSans-34" transform="translate(159.033203 0)"/>
      </g>
     </g>
    </g>
    <g id="text_8">
     <!-- Actual -->
     <g transform="translate(220.495938 335.860562) scale(0.1 -0.1)">
      <defs>
       <path id="DejaVuSans-41" d="M 2188 4044 
L 1331 1722 
L 3047 1722 
L 2188 4044 
z
M 1831 4666 
L 2547 4666 
L 4325 0 
L 3669 0 
L 3244 1197 
L 1141 1197 
L 716 0 
L 50 0 
L 1831 4666 
z
" transform="scale(0.015625)"/>
       <path id="DejaVuSans-63" d="M 3122 3366 
L 3122 2828 
Q 2878 2963 2633 3030 
Q 2388 3097 2138 3097 
Q 1578 3097 1268 2742 
Q 959 2388 959 1747 
Q 959 1106 1268 751 
Q 1578 397 2138 397 
Q 2388 397 2633 464 
Q 2878 531 3122 666 
L 3122 134 
Q 2881 22 2623 -34 
Q 2366 -91 2075 -91 
Q 1284 -91 818 406 
Q 353 903 353 1747 
Q 353 2603 823 3093 
Q 1294 3584 2113 3584 
Q 2378 3584 2631 3529 
Q 2884 3475 3122 3366 
z
" transform="scale(0.015625)"/>
       <path id="DejaVuSans-74" d="M 1172 4494 
L 1172 3500 
L 2356 3500 
L 2356 3053 
L 1172 3053 
L 1172 1153 
Q 1172 725 1289 603 
Q 1406 481 1766 481 
L 2356 481 
L 2356 0 
L 1766 0 
Q 1100 0 847 248 
Q 594 497 594 1153 
L 594 3053 
L 172 3053 
L 172 3500 
L 594 3500 
L 594 4494 
L 1172 4494 
z
" transform="scale(0.015625)"/>
       <path id="DejaVuSans-75" d="M 544 1381 
L 544 3500 
L 1119 3500 
L 1119 1403 
Q 1119 906 1312 657 
Q 1506 409 1894 409 
Q 2359 409 2629 706 
Q 2900 1003 2900 1516 
L 2900 3500 
L 3475 3500 
L 3475 0 
L 2900 0 
L 2900 538 
Q 2691 219 2414 64 
Q 2138 -91 1772 -91 
Q 1169 -91 856 284 
Q 544 659 544 1381 
z
M 1991 3584 
L 1991 3584 
z
" transform="scale(0.015625)"/>
       <path id="DejaVuSans-61" d="M 2194 1759 
Q 1497 1759 1228 1600 
Q 959 1441 959 1056 
Q 959 750 1161 570 
Q 1363 391 1709 391 
Q 2188 391 2477 730 
Q 2766 1069 2766 1631 
L 2766 1759 
L 2194 1759 
z
M 3341 1997 
L 3341 0 
L 2766 0 
L 2766 531 
Q 2569 213 2275 61 
Q 1981 -91 1556 -91 
Q 1019 -91 701 211 
Q 384 513 384 1019 
Q 384 1609 779 1909 
Q 1175 2209 1959 2209 
L 2766 2209 
L 2766 2266 
Q 2766 2663 2505 2880 
Q 2244 3097 1772 3097 
Q 1472 3097 1187 3025 
Q 903 2953 641 2809 
L 641 3341 
Q 956 3463 1253 3523 
Q 1550 3584 1831 3584 
Q 2591 3584 2966 3190 
Q 3341 2797 3341 1997 
z
" transform="scale(0.015625)"/>
       <path id="DejaVuSans-6c" d="M 603 4863 
L 1178 4863 
L 1178 0 
L 603 0 
L 603 4863 
z
" transform="scale(0.015625)"/>
      </defs>
      <use xlink:href="#DejaVuSans-41"/>
      <use xlink:href="#DejaVuSans-63" transform="translate(66.658203 0)"/>
      <use xlink:href="#DejaVuSans-74" transform="translate(121.638672 0)"/>
      <use xlink:href="#DejaVuSans-75" transform="translate(160.847656 0)"/>
      <use xlink:href="#DejaVuSans-61" transform="translate(224.226562 0)"/>
      <use xlink:href="#DejaVuSans-6c" transform="translate(285.505859 0)"/>
     </g>
    </g>
   </g>
   <g id="matplotlib.axis_2">
    <g id="ytick_1">
     <g id="line2d_8">
      <defs>
       <path id="m72f1eb4359" d="M 0 0 
L -3.5 0 
" style="stroke: #000000; stroke-width: 0.8"/>
      </defs>
      <g>
       <use xlink:href="#m72f1eb4359" x="103.104" y="303.676253" style="stroke: #000000; stroke-width: 0.8"/>
      </g>
     </g>
     <g id="text_9">
      <!-- −0.08 -->
      <g transform="translate(65.458688 307.475472) scale(0.1 -0.1)">
       <use xlink:href="#DejaVuSans-2212"/>
       <use xlink:href="#DejaVuSans-30" transform="translate(83.789062 0)"/>
       <use xlink:href="#DejaVuSans-2e" transform="translate(147.412109 0)"/>
       <use xlink:href="#DejaVuSans-30" transform="translate(179.199219 0)"/>
       <use xlink:href="#DejaVuSans-38" transform="translate(242.822266 0)"/>
      </g>
     </g>
    </g>
    <g id="ytick_2">
     <g id="line2d_9">
      <g>
       <use xlink:href="#m72f1eb4359" x="103.104" y="263.96396" style="stroke: #000000; stroke-width: 0.8"/>
      </g>
     </g>
     <g id="text_10">
      <!-- −0.06 -->
      <g transform="translate(65.458688 267.763179) scale(0.1 -0.1)">
       <use xlink:href="#DejaVuSans-2212"/>
       <use xlink:href="#DejaVuSans-30" transform="translate(83.789062 0)"/>
       <use xlink:href="#DejaVuSans-2e" transform="translate(147.412109 0)"/>
       <use xlink:href="#DejaVuSans-30" transform="translate(179.199219 0)"/>
       <use xlink:href="#DejaVuSans-36" transform="translate(242.822266 0)"/>
      </g>
     </g>
    </g>
    <g id="ytick_3">
     <g id="line2d_10">
      <g>
       <use xlink:href="#m72f1eb4359" x="103.104" y="224.251666" style="stroke: #000000; stroke-width: 0.8"/>
      </g>
     </g>
     <g id="text_11">
      <!-- −0.04 -->
      <g transform="translate(65.458688 228.050885) scale(0.1 -0.1)">
       <use xlink:href="#DejaVuSans-2212"/>
       <use xlink:href="#DejaVuSans-30" transform="translate(83.789062 0)"/>
       <use xlink:href="#DejaVuSans-2e" transform="translate(147.412109 0)"/>
       <use xlink:href="#DejaVuSans-30" transform="translate(179.199219 0)"/>
       <use xlink:href="#DejaVuSans-34" transform="translate(242.822266 0)"/>
      </g>
     </g>
    </g>
    <g id="ytick_4">
     <g id="line2d_11">
      <g>
       <use xlink:href="#m72f1eb4359" x="103.104" y="184.539373" style="stroke: #000000; stroke-width: 0.8"/>
      </g>
     </g>
     <g id="text_12">
      <!-- −0.02 -->
      <g transform="translate(65.458688 188.338592) scale(0.1 -0.1)">
       <use xlink:href="#DejaVuSans-2212"/>
       <use xlink:href="#DejaVuSans-30" transform="translate(83.789062 0)"/>
       <use xlink:href="#DejaVuSans-2e" transform="translate(147.412109 0)"/>
       <use xlink:href="#DejaVuSans-30" transform="translate(179.199219 0)"/>
       <use xlink:href="#DejaVuSans-32" transform="translate(242.822266 0)"/>
      </g>
     </g>
    </g>
    <g id="ytick_5">
     <g id="line2d_12">
      <g>
       <use xlink:href="#m72f1eb4359" x="103.104" y="144.82708" style="stroke: #000000; stroke-width: 0.8"/>
      </g>
     </g>
     <g id="text_13">
      <!-- 0.00 -->
      <g transform="translate(73.838375 148.626298) scale(0.1 -0.1)">
       <use xlink:href="#DejaVuSans-30"/>
       <use xlink:href="#DejaVuSans-2e" transform="translate(63.623047 0)"/>
       <use xlink:href="#DejaVuSans-30" transform="translate(95.410156 0)"/>
       <use xlink:href="#DejaVuSans-30" transform="translate(159.033203 0)"/>
      </g>
     </g>
    </g>
    <g id="ytick_6">
     <g id="line2d_13">
      <g>
       <use xlink:href="#m72f1eb4359" x="103.104" y="105.114786" style="stroke: #000000; stroke-width: 0.8"/>
      </g>
     </g>
     <g id="text_14">
      <!-- 0.02 -->
      <g transform="translate(73.838375 108.914005) scale(0.1 -0.1)">
       <use xlink:href="#DejaVuSans-30"/>
       <use xlink:href="#DejaVuSans-2e" transform="translate(63.623047 0)"/>
       <use xlink:href="#DejaVuSans-30" transform="translate(95.410156 0)"/>
       <use xlink:href="#DejaVuSans-32" transform="translate(159.033203 0)"/>
      </g>
     </g>
    </g>
    <g id="ytick_7">
     <g id="line2d_14">
      <g>
       <use xlink:href="#m72f1eb4359" x="103.104" y="65.402493" style="stroke: #000000; stroke-width: 0.8"/>
      </g>
     </g>
     <g id="text_15">
      <!-- 0.04 -->
      <g transform="translate(73.838375 69.201712) scale(0.1 -0.1)">
       <use xlink:href="#DejaVuSans-30"/>
       <use xlink:href="#DejaVuSans-2e" transform="translate(63.623047 0)"/>
       <use xlink:href="#DejaVuSans-30" transform="translate(95.410156 0)"/>
       <use xlink:href="#DejaVuSans-34" transform="translate(159.033203 0)"/>
      </g>
     </g>
    </g>
    <g id="text_16">
     <!-- Predicted -->
     <g transform="translate(59.379 197.998312) rotate(-90) scale(0.1 -0.1)">
      <defs>
       <path id="DejaVuSans-50" d="M 1259 4147 
L 1259 2394 
L 2053 2394 
Q 2494 2394 2734 2622 
Q 2975 2850 2975 3272 
Q 2975 3691 2734 3919 
Q 2494 4147 2053 4147 
L 1259 4147 
z
M 628 4666 
L 2053 4666 
Q 2838 4666 3239 4311 
Q 3641 3956 3641 3272 
Q 3641 2581 3239 2228 
Q 2838 1875 2053 1875 
L 1259 1875 
L 1259 0 
L 628 0 
L 628 4666 
z
" transform="scale(0.015625)"/>
       <path id="DejaVuSans-72" d="M 2631 2963 
Q 2534 3019 2420 3045 
Q 2306 3072 2169 3072 
Q 1681 3072 1420 2755 
Q 1159 2438 1159 1844 
L 1159 0 
L 581 0 
L 581 3500 
L 1159 3500 
L 1159 2956 
Q 1341 3275 1631 3429 
Q 1922 3584 2338 3584 
Q 2397 3584 2469 3576 
Q 2541 3569 2628 3553 
L 2631 2963 
z
" transform="scale(0.015625)"/>
       <path id="DejaVuSans-65" d="M 3597 1894 
L 3597 1613 
L 953 1613 
Q 991 1019 1311 708 
Q 1631 397 2203 397 
Q 2534 397 2845 478 
Q 3156 559 3463 722 
L 3463 178 
Q 3153 47 2828 -22 
Q 2503 -91 2169 -91 
Q 1331 -91 842 396 
Q 353 884 353 1716 
Q 353 2575 817 3079 
Q 1281 3584 2069 3584 
Q 2775 3584 3186 3129 
Q 3597 2675 3597 1894 
z
M 3022 2063 
Q 3016 2534 2758 2815 
Q 2500 3097 2075 3097 
Q 1594 3097 1305 2825 
Q 1016 2553 972 2059 
L 3022 2063 
z
" transform="scale(0.015625)"/>
       <path id="DejaVuSans-64" d="M 2906 2969 
L 2906 4863 
L 3481 4863 
L 3481 0 
L 2906 0 
L 2906 525 
Q 2725 213 2448 61 
Q 2172 -91 1784 -91 
Q 1150 -91 751 415 
Q 353 922 353 1747 
Q 353 2572 751 3078 
Q 1150 3584 1784 3584 
Q 2172 3584 2448 3432 
Q 2725 3281 2906 2969 
z
M 947 1747 
Q 947 1113 1208 752 
Q 1469 391 1925 391 
Q 2381 391 2643 752 
Q 2906 1113 2906 1747 
Q 2906 2381 2643 2742 
Q 2381 3103 1925 3103 
Q 1469 3103 1208 2742 
Q 947 2381 947 1747 
z
" transform="scale(0.015625)"/>
       <path id="DejaVuSans-69" d="M 603 3500 
L 1178 3500 
L 1178 0 
L 603 0 
L 603 3500 
z
M 603 4863 
L 1178 4863 
L 1178 4134 
L 603 4134 
L 603 4863 
z
" transform="scale(0.015625)"/>
      </defs>
      <use xlink:href="#DejaVuSans-50"/>
      <use xlink:href="#DejaVuSans-72" transform="translate(58.552734 0)"/>
      <use xlink:href="#DejaVuSans-65" transform="translate(97.416016 0)"/>
      <use xlink:href="#DejaVuSans-64" transform="translate(158.939453 0)"/>
      <use xlink:href="#DejaVuSans-69" transform="translate(222.416016 0)"/>
      <use xlink:href="#DejaVuSans-63" transform="translate(250.199219 0)"/>
      <use xlink:href="#DejaVuSans-74" transform="translate(305.179688 0)"/>
      <use xlink:href="#DejaVuSans-65" transform="translate(344.388672 0)"/>
      <use xlink:href="#DejaVuSans-64" transform="translate(405.912109 0)"/>
     </g>
    </g>
   </g>
   <g id="line2d_15">
    <path d="M 103.104 307.584 
L 369.216 41.472 
" clip-path="url(#p2050a592cc)" style="fill: none; stroke-dasharray: 5.55,2.4; stroke-dashoffset: 0; stroke: #000000; stroke-opacity: 0.2; stroke-width: 1.5"/>
   </g>
   <g id="patch_3">
    <path d="M 103.104 307.584 
L 103.104 41.472 
" style="fill: none; stroke: #000000; stroke-width: 0.8; stroke-linejoin: miter; stroke-linecap: square"/>
   </g>
   <g id="patch_4">
    <path d="M 369.216 307.584 
L 369.216 41.472 
" style="fill: none; stroke: #000000; stroke-width: 0.8; stroke-linejoin: miter; stroke-linecap: square"/>
   </g>
   <g id="patch_5">
    <path d="M 103.104 307.584 
L 369.216 307.584 
" style="fill: none; stroke: #000000; stroke-width: 0.8; stroke-linejoin: miter; stroke-linecap: square"/>
   </g>
   <g id="patch_6">
    <path d="M 103.104 41.472 
L 369.216 41.472 
" style="fill: none; stroke: #000000; stroke-width: 0.8; stroke-linejoin: miter; stroke-linecap: square"/>
   </g>
   <g id="legend_1">
    <g id="patch_7">
     <path d="M 110.104 93.506375 
L 231.236813 93.506375 
Q 233.236813 93.506375 233.236813 91.506375 
L 233.236813 48.472 
Q 233.236813 46.472 231.236813 46.472 
L 110.104 46.472 
Q 108.104 46.472 108.104 48.472 
L 108.104 91.506375 
Q 108.104 93.506375 110.104 93.506375 
z
" style="fill: #ffffff; opacity: 0.8; stroke: #cccccc; stroke-linejoin: miter"/>
    </g>
    <g id="PathCollection_3">
     <g>
      <use xlink:href="#m6f1de897be" x="122.104" y="55.445438" style="fill: #0000ff; stroke: #0000ff"/>
     </g>
    </g>
    <g id="text_17">
     <!-- Test, MAE = 0.02 -->
     <g transform="translate(140.104 58.070438) scale(0.1 -0.1)">
      <defs>
       <path id="DejaVuSans-54" d="M -19 4666 
L 3928 4666 
L 3928 4134 
L 2272 4134 
L 2272 0 
L 1638 0 
L 1638 4134 
L -19 4134 
L -19 4666 
z
" transform="scale(0.015625)"/>
       <path id="DejaVuSans-73" d="M 2834 3397 
L 2834 2853 
Q 2591 2978 2328 3040 
Q 2066 3103 1784 3103 
Q 1356 3103 1142 2972 
Q 928 2841 928 2578 
Q 928 2378 1081 2264 
Q 1234 2150 1697 2047 
L 1894 2003 
Q 2506 1872 2764 1633 
Q 3022 1394 3022 966 
Q 3022 478 2636 193 
Q 2250 -91 1575 -91 
Q 1294 -91 989 -36 
Q 684 19 347 128 
L 347 722 
Q 666 556 975 473 
Q 1284 391 1588 391 
Q 1994 391 2212 530 
Q 2431 669 2431 922 
Q 2431 1156 2273 1281 
Q 2116 1406 1581 1522 
L 1381 1569 
Q 847 1681 609 1914 
Q 372 2147 372 2553 
Q 372 3047 722 3315 
Q 1072 3584 1716 3584 
Q 2034 3584 2315 3537 
Q 2597 3491 2834 3397 
z
" transform="scale(0.015625)"/>
       <path id="DejaVuSans-2c" d="M 750 794 
L 1409 794 
L 1409 256 
L 897 -744 
L 494 -744 
L 750 256 
L 750 794 
z
" transform="scale(0.015625)"/>
       <path id="DejaVuSans-20" transform="scale(0.015625)"/>
       <path id="DejaVuSans-4d" d="M 628 4666 
L 1569 4666 
L 2759 1491 
L 3956 4666 
L 4897 4666 
L 4897 0 
L 4281 0 
L 4281 4097 
L 3078 897 
L 2444 897 
L 1241 4097 
L 1241 0 
L 628 0 
L 628 4666 
z
" transform="scale(0.015625)"/>
       <path id="DejaVuSans-45" d="M 628 4666 
L 3578 4666 
L 3578 4134 
L 1259 4134 
L 1259 2753 
L 3481 2753 
L 3481 2222 
L 1259 2222 
L 1259 531 
L 3634 531 
L 3634 0 
L 628 0 
L 628 4666 
z
" transform="scale(0.015625)"/>
       <path id="DejaVuSans-3d" d="M 678 2906 
L 4684 2906 
L 4684 2381 
L 678 2381 
L 678 2906 
z
M 678 1631 
L 4684 1631 
L 4684 1100 
L 678 1100 
L 678 1631 
z
" transform="scale(0.015625)"/>
      </defs>
      <use xlink:href="#DejaVuSans-54"/>
      <use xlink:href="#DejaVuSans-65" transform="translate(44.083984 0)"/>
      <use xlink:href="#DejaVuSans-73" transform="translate(105.607422 0)"/>
      <use xlink:href="#DejaVuSans-74" transform="translate(157.707031 0)"/>
      <use xlink:href="#DejaVuSans-2c" transform="translate(196.916016 0)"/>
      <use xlink:href="#DejaVuSans-20" transform="translate(228.703125 0)"/>
      <use xlink:href="#DejaVuSans-4d" transform="translate(260.490234 0)"/>
      <use xlink:href="#DejaVuSans-41" transform="translate(346.769531 0)"/>
      <use xlink:href="#DejaVuSans-45" transform="translate(415.177734 0)"/>
      <use xlink:href="#DejaVuSans-20" transform="translate(478.361328 0)"/>
      <use xlink:href="#DejaVuSans-3d" transform="translate(510.148438 0)"/>
      <use xlink:href="#DejaVuSans-20" transform="translate(593.9375 0)"/>
      <use xlink:href="#DejaVuSans-30" transform="translate(625.724609 0)"/>
      <use xlink:href="#DejaVuSans-2e" transform="translate(689.347656 0)"/>
      <use xlink:href="#DejaVuSans-30" transform="translate(721.134766 0)"/>
      <use xlink:href="#DejaVuSans-32" transform="translate(784.757812 0)"/>
     </g>
    </g>
    <g id="PathCollection_4">
     <g>
      <use xlink:href="#m4e8d5bdac6" x="122.104" y="70.123563" style="fill: #ff0000; stroke: #ff0000"/>
     </g>
    </g>
    <g id="text_18">
     <!-- Train, MAE = 0.02 -->
     <g transform="translate(140.104 72.748563) scale(0.1 -0.1)">
      <defs>
       <path id="DejaVuSans-6e" d="M 3513 2113 
L 3513 0 
L 2938 0 
L 2938 2094 
Q 2938 2591 2744 2837 
Q 2550 3084 2163 3084 
Q 1697 3084 1428 2787 
Q 1159 2491 1159 1978 
L 1159 0 
L 581 0 
L 581 3500 
L 1159 3500 
L 1159 2956 
Q 1366 3272 1645 3428 
Q 1925 3584 2291 3584 
Q 2894 3584 3203 3211 
Q 3513 2838 3513 2113 
z
" transform="scale(0.015625)"/>
      </defs>
      <use xlink:href="#DejaVuSans-54"/>
      <use xlink:href="#DejaVuSans-72" transform="translate(46.333984 0)"/>
      <use xlink:href="#DejaVuSans-61" transform="translate(87.447266 0)"/>
      <use xlink:href="#DejaVuSans-69" transform="translate(148.726562 0)"/>
      <use xlink:href="#DejaVuSans-6e" transform="translate(176.509766 0)"/>
      <use xlink:href="#DejaVuSans-2c" transform="translate(239.888672 0)"/>
      <use xlink:href="#DejaVuSans-20" transform="translate(271.675781 0)"/>
      <use xlink:href="#DejaVuSans-4d" transform="translate(303.462891 0)"/>
      <use xlink:href="#DejaVuSans-41" transform="translate(389.742188 0)"/>
      <use xlink:href="#DejaVuSans-45" transform="translate(458.150391 0)"/>
      <use xlink:href="#DejaVuSans-20" transform="translate(521.333984 0)"/>
      <use xlink:href="#DejaVuSans-3d" transform="translate(553.121094 0)"/>
      <use xlink:href="#DejaVuSans-20" transform="translate(636.910156 0)"/>
      <use xlink:href="#DejaVuSans-30" transform="translate(668.697266 0)"/>
      <use xlink:href="#DejaVuSans-2e" transform="translate(732.320312 0)"/>
      <use xlink:href="#DejaVuSans-30" transform="translate(764.107422 0)"/>
      <use xlink:href="#DejaVuSans-32" transform="translate(827.730469 0)"/>
     </g>
    </g>
    <g id="line2d_16">
     <path d="M 112.104 83.926688 
L 122.104 83.926688 
L 132.104 83.926688 
" style="fill: none; stroke-dasharray: 5.55,2.4; stroke-dashoffset: 0; stroke: #000000; stroke-opacity: 0.2; stroke-width: 1.5"/>
    </g>
    <g id="text_19">
     <!-- y=x -->
     <g transform="translate(140.104 87.426688) scale(0.1 -0.1)">
      <defs>
       <path id="DejaVuSans-79" d="M 2059 -325 
Q 1816 -950 1584 -1140 
Q 1353 -1331 966 -1331 
L 506 -1331 
L 506 -850 
L 844 -850 
Q 1081 -850 1212 -737 
Q 1344 -625 1503 -206 
L 1606 56 
L 191 3500 
L 800 3500 
L 1894 763 
L 2988 3500 
L 3597 3500 
L 2059 -325 
z
" transform="scale(0.015625)"/>
       <path id="DejaVuSans-78" d="M 3513 3500 
L 2247 1797 
L 3578 0 
L 2900 0 
L 1881 1375 
L 863 0 
L 184 0 
L 1544 1831 
L 300 3500 
L 978 3500 
L 1906 2253 
L 2834 3500 
L 3513 3500 
z
" transform="scale(0.015625)"/>
      </defs>
      <use xlink:href="#DejaVuSans-79"/>
      <use xlink:href="#DejaVuSans-3d" transform="translate(59.179688 0)"/>
      <use xlink:href="#DejaVuSans-78" transform="translate(142.96875 0)"/>
     </g>
    </g>
   </g>
  </g>
 </g>
 <defs>
  <clipPath id="p2050a592cc">
   <rect x="103.104" y="41.472" width="266.112" height="266.112"/>
  </clipPath>
 </defs>
</svg>
