<?xml version="1.0" encoding="utf-8" standalone="no"?>
<!DOCTYPE svg PUBLIC "-//W3C//DTD SVG 1.1//EN"
  "http://www.w3.org/Graphics/SVG/1.1/DTD/svg11.dtd">
<svg xmlns:xlink="http://www.w3.org/1999/xlink" width="3096pt" height="432pt" viewBox="0 0 3096 432" xmlns="http://www.w3.org/2000/svg" version="1.1">
 <metadata>
  <rdf:RDF xmlns:dc="http://purl.org/dc/elements/1.1/" xmlns:cc="http://creativecommons.org/ns#" xmlns:rdf="http://www.w3.org/1999/02/22-rdf-syntax-ns#">
   <cc:Work>
    <dc:type rdf:resource="http://purl.org/dc/dcmitype/StillImage"/>
    <dc:date>2025-04-08T14:29:29.895844</dc:date>
    <dc:format>image/svg+xml</dc:format>
    <dc:creator>
     <cc:Agent>
      <dc:title>Matplotlib v3.9.0, https://matplotlib.org/</dc:title>
     </cc:Agent>
    </dc:creator>
   </cc:Work>
  </rdf:RDF>
 </metadata>
 <defs>
  <style type="text/css">*{stroke-linejoin: round; stroke-linecap: butt}</style>
 </defs>
 <g id="figure_1">
  <g id="patch_1">
   <path d="M 0 432 
L 3096 432 
L 3096 0 
L 0 0 
z
" style="fill: #ffffff"/>
  </g>
  <g id="axes_1">
   <g id="line2d_1">
    <path d="M 72 72 
L 3024 72 
" clip-path="url(#p10a416fccb)" style="fill: none; stroke: #000000; stroke-width: 1.5; stroke-linecap: square"/>
   </g>
   <g id="line2d_2">
    <path d="M 72 144 
L 3024 144 
" clip-path="url(#p10a416fccb)" style="fill: none; stroke: #000000; stroke-width: 1.5; stroke-linecap: square"/>
   </g>
   <g id="line2d_3">
    <path d="M 72 216 
L 3024 216 
" clip-path="url(#p10a416fccb)" style="fill: none; stroke: #000000; stroke-width: 1.5; stroke-linecap: square"/>
   </g>
   <g id="line2d_4">
    <path d="M 72 288 
L 3024 288 
" clip-path="url(#p10a416fccb)" style="fill: none; stroke: #000000; stroke-width: 1.5; stroke-linecap: square"/>
   </g>
   <g id="line2d_5">
    <path d="M 72 360 
L 3024 360 
" clip-path="url(#p10a416fccb)" style="fill: none; stroke: #000000; stroke-width: 1.5; stroke-linecap: square"/>
   </g>
   <g id="line2d_6">
    <path d="M 360 72 
L 360 144 
" clip-path="url(#p10a416fccb)" style="fill: none; stroke: #000000; stroke-width: 1.5; stroke-linecap: square"/>
   </g>
   <g id="line2d_7">
    <path d="M 432 144 
L 432 216 
" clip-path="url(#p10a416fccb)" style="fill: none; stroke: #000000; stroke-width: 1.5; stroke-linecap: square"/>
   </g>
   <g id="line2d_8">
    <path d="M 504 216 
L 504 288 
" clip-path="url(#p10a416fccb)" style="fill: none; stroke: #000000; stroke-width: 1.5; stroke-linecap: square"/>
   </g>
   <g id="line2d_9">
    <path d="M 576 288 
L 576 360 
" clip-path="url(#p10a416fccb)" style="fill: none; stroke: #000000; stroke-width: 1.5; stroke-linecap: square"/>
   </g>
   <g id="line2d_10">
    <path d="M 648 72 
L 648 360 
" clip-path="url(#p10a416fccb)" style="fill: none; stroke: #000000; stroke-width: 1.5; stroke-linecap: square"/>
   </g>
   <g id="line2d_11">
    <path d="M 936 72 
L 936 144 
" clip-path="url(#p10a416fccb)" style="fill: none; stroke: #000000; stroke-width: 1.5; stroke-linecap: square"/>
   </g>
   <g id="line2d_12">
    <path d="M 1008 144 
L 1008 216 
" clip-path="url(#p10a416fccb)" style="fill: none; stroke: #000000; stroke-width: 1.5; stroke-linecap: square"/>
   </g>
   <g id="line2d_13">
    <path d="M 1080 216 
L 1080 288 
" clip-path="url(#p10a416fccb)" style="fill: none; stroke: #000000; stroke-width: 1.5; stroke-linecap: square"/>
   </g>
   <g id="line2d_14">
    <path d="M 1152 288 
L 1152 360 
" clip-path="url(#p10a416fccb)" style="fill: none; stroke: #000000; stroke-width: 1.5; stroke-linecap: square"/>
   </g>
   <g id="line2d_15">
    <path d="M 1224 72 
L 1224 360 
" clip-path="url(#p10a416fccb)" style="fill: none; stroke: #000000; stroke-width: 1.5; stroke-linecap: square"/>
   </g>
   <g id="line2d_16">
    <path d="M 1512 72 
L 1512 144 
" clip-path="url(#p10a416fccb)" style="fill: none; stroke: #000000; stroke-width: 1.5; stroke-linecap: square"/>
   </g>
   <g id="line2d_17">
    <path d="M 1584 144 
L 1584 216 
" clip-path="url(#p10a416fccb)" style="fill: none; stroke: #000000; stroke-width: 1.5; stroke-linecap: square"/>
   </g>
   <g id="line2d_18">
    <path d="M 1656 216 
L 1656 288 
" clip-path="url(#p10a416fccb)" style="fill: none; stroke: #000000; stroke-width: 1.5; stroke-linecap: square"/>
   </g>
   <g id="line2d_19">
    <path d="M 1728 288 
L 1728 360 
" clip-path="url(#p10a416fccb)" style="fill: none; stroke: #000000; stroke-width: 1.5; stroke-linecap: square"/>
   </g>
   <g id="line2d_20">
    <path d="M 1800 72 
L 1800 360 
" clip-path="url(#p10a416fccb)" style="fill: none; stroke: #000000; stroke-width: 1.5; stroke-linecap: square"/>
   </g>
   <g id="line2d_21">
    <path d="M 2088 72 
L 2088 144 
" clip-path="url(#p10a416fccb)" style="fill: none; stroke: #000000; stroke-width: 1.5; stroke-linecap: square"/>
   </g>
   <g id="line2d_22">
    <path d="M 2160 144 
L 2160 216 
" clip-path="url(#p10a416fccb)" style="fill: none; stroke: #000000; stroke-width: 1.5; stroke-linecap: square"/>
   </g>
   <g id="line2d_23">
    <path d="M 2232 216 
L 2232 288 
" clip-path="url(#p10a416fccb)" style="fill: none; stroke: #000000; stroke-width: 1.5; stroke-linecap: square"/>
   </g>
   <g id="line2d_24">
    <path d="M 2304 288 
L 2304 360 
" clip-path="url(#p10a416fccb)" style="fill: none; stroke: #000000; stroke-width: 1.5; stroke-linecap: square"/>
   </g>
   <g id="line2d_25">
    <path d="M 2376 72 
L 2376 360 
" clip-path="url(#p10a416fccb)" style="fill: none; stroke: #000000; stroke-width: 1.5; stroke-linecap: square"/>
   </g>
   <g id="line2d_26">
    <path d="M 2664 72 
L 2664 144 
" clip-path="url(#p10a416fccb)" style="fill: none; stroke: #000000; stroke-width: 1.5; stroke-linecap: square"/>
   </g>
   <g id="line2d_27">
    <path d="M 2736 144 
L 2736 216 
" clip-path="url(#p10a416fccb)" style="fill: none; stroke: #000000; stroke-width: 1.5; stroke-linecap: square"/>
   </g>
   <g id="line2d_28">
    <path d="M 2808 216 
L 2808 288 
" clip-path="url(#p10a416fccb)" style="fill: none; stroke: #000000; stroke-width: 1.5; stroke-linecap: square"/>
   </g>
   <g id="line2d_29">
    <path d="M 2880 288 
L 2880 360 
" clip-path="url(#p10a416fccb)" style="fill: none; stroke: #000000; stroke-width: 1.5; stroke-linecap: square"/>
   </g>
   <g id="line2d_30">
    <path d="M 2952 72 
L 2952 360 
" clip-path="url(#p10a416fccb)" style="fill: none; stroke: #000000; stroke-width: 1.5; stroke-linecap: square"/>
   </g>
   <g id="text_1">
    <!-- 0 -->
    <g transform="translate(31.54625 75.863125) scale(0.14 -0.14)">
     <defs>
      <path id="DejaVuSans-30" d="M 2034 4250 
Q 1547 4250 1301 3770 
Q 1056 3291 1056 2328 
Q 1056 1369 1301 889 
Q 1547 409 2034 409 
Q 2525 409 2770 889 
Q 3016 1369 3016 2328 
Q 3016 3291 2770 3770 
Q 2525 4250 2034 4250 
z
M 2034 4750 
Q 2819 4750 3233 4129 
Q 3647 3509 3647 2328 
Q 3647 1150 3233 529 
Q 2819 -91 2034 -91 
Q 1250 -91 836 529 
Q 422 1150 422 2328 
Q 422 3509 836 4129 
Q 1250 4750 2034 4750 
z
" transform="scale(0.015625)"/>
     </defs>
     <use xlink:href="#DejaVuSans-30"/>
    </g>
   </g>
   <g id="text_2">
    <!-- 1 -->
    <g transform="translate(31.54625 147.863125) scale(0.14 -0.14)">
     <defs>
      <path id="DejaVuSans-31" d="M 794 531 
L 1825 531 
L 1825 4091 
L 703 3866 
L 703 4441 
L 1819 4666 
L 2450 4666 
L 2450 531 
L 3481 531 
L 3481 0 
L 794 0 
L 794 531 
z
" transform="scale(0.015625)"/>
     </defs>
     <use xlink:href="#DejaVuSans-31"/>
    </g>
   </g>
   <g id="text_3">
    <!-- 2 -->
    <g transform="translate(31.54625 219.863125) scale(0.14 -0.14)">
     <defs>
      <path id="DejaVuSans-32" d="M 1228 531 
L 3431 531 
L 3431 0 
L 469 0 
L 469 531 
Q 828 903 1448 1529 
Q 2069 2156 2228 2338 
Q 2531 2678 2651 2914 
Q 2772 3150 2772 3378 
Q 2772 3750 2511 3984 
Q 2250 4219 1831 4219 
Q 1534 4219 1204 4116 
Q 875 4013 500 3803 
L 500 4441 
Q 881 4594 1212 4672 
Q 1544 4750 1819 4750 
Q 2544 4750 2975 4387 
Q 3406 4025 3406 3419 
Q 3406 3131 3298 2873 
Q 3191 2616 2906 2266 
Q 2828 2175 2409 1742 
Q 1991 1309 1228 531 
z
" transform="scale(0.015625)"/>
     </defs>
     <use xlink:href="#DejaVuSans-32"/>
    </g>
   </g>
   <g id="text_4">
    <!-- 3 -->
    <g transform="translate(31.54625 291.863125) scale(0.14 -0.14)">
     <defs>
      <path id="DejaVuSans-33" d="M 2597 2516 
Q 3050 2419 3304 2112 
Q 3559 1806 3559 1356 
Q 3559 666 3084 287 
Q 2609 -91 1734 -91 
Q 1441 -91 1130 -33 
Q 819 25 488 141 
L 488 750 
Q 750 597 1062 519 
Q 1375 441 1716 441 
Q 2309 441 2620 675 
Q 2931 909 2931 1356 
Q 2931 1769 2642 2001 
Q 2353 2234 1838 2234 
L 1294 2234 
L 1294 2753 
L 1863 2753 
Q 2328 2753 2575 2939 
Q 2822 3125 2822 3475 
Q 2822 3834 2567 4026 
Q 2313 4219 1838 4219 
Q 1578 4219 1281 4162 
Q 984 4106 628 3988 
L 628 4550 
Q 988 4650 1302 4700 
Q 1616 4750 1894 4750 
Q 2613 4750 3031 4423 
Q 3450 4097 3450 3541 
Q 3450 3153 3228 2886 
Q 3006 2619 2597 2516 
z
" transform="scale(0.015625)"/>
     </defs>
     <use xlink:href="#DejaVuSans-33"/>
    </g>
   </g>
   <g id="text_5">
    <!-- 4 -->
    <g transform="translate(31.54625 363.863125) scale(0.14 -0.14)">
     <defs>
      <path id="DejaVuSans-34" d="M 2419 4116 
L 825 1625 
L 2419 1625 
L 2419 4116 
z
M 2253 4666 
L 3047 4666 
L 3047 1625 
L 3713 1625 
L 3713 1100 
L 3047 1100 
L 3047 0 
L 2419 0 
L 2419 1100 
L 313 1100 
L 313 1709 
L 2253 4666 
z
" transform="scale(0.015625)"/>
     </defs>
     <use xlink:href="#DejaVuSans-34"/>
    </g>
   </g>
   <g id="patch_2">
    <path d="M 360 64.8 
C 361.909462 64.8 363.740975 65.558637 365.091169 66.908831 
C 366.441363 68.259025 367.2 70.090538 367.2 72 
C 367.2 73.909462 366.441363 75.740975 365.091169 77.091169 
C 363.740975 78.441363 361.909462 79.2 360 79.2 
C 358.090538 79.2 356.259025 78.441363 354.908831 77.091169 
C 353.558637 75.740975 352.8 73.909462 352.8 72 
C 352.8 70.090538 353.558637 68.259025 354.908831 66.908831 
C 356.259025 65.558637 358.090538 64.8 360 64.8 
z
" clip-path="url(#p10a416fccb)" style="stroke: #000000; stroke-width: 3; stroke-linejoin: miter"/>
   </g>
   <g id="patch_3">
    <path d="M 360 122.4 
C 365.728387 122.4 371.222925 124.675912 375.273506 128.726494 
C 379.324088 132.777075 381.6 138.271613 381.6 144 
C 381.6 149.728387 379.324088 155.222925 375.273506 159.273506 
C 371.222925 163.324088 365.728387 165.6 360 165.6 
C 354.271613 165.6 348.777075 163.324088 344.726494 159.273506 
C 340.675912 155.222925 338.4 149.728387 338.4 144 
C 338.4 138.271613 340.675912 132.777075 344.726494 128.726494 
C 348.777075 124.675912 354.271613 122.4 360 122.4 
z
" clip-path="url(#p10a416fccb)" style="fill: #ffffff; stroke: #000000; stroke-width: 1.5; stroke-linejoin: miter"/>
   </g>
   <g id="patch_4">
    <path d="M 432 136.8 
C 433.909462 136.8 435.740975 137.558637 437.091169 138.908831 
C 438.441363 140.259025 439.2 142.090538 439.2 144 
C 439.2 145.909462 438.441363 147.740975 437.091169 149.091169 
C 435.740975 150.441363 433.909462 151.2 432 151.2 
C 430.090538 151.2 428.259025 150.441363 426.908831 149.091169 
C 425.558637 147.740975 424.8 145.909462 424.8 144 
C 424.8 142.090538 425.558637 140.259025 426.908831 138.908831 
C 428.259025 137.558637 430.090538 136.8 432 136.8 
z
" clip-path="url(#p10a416fccb)" style="stroke: #000000; stroke-width: 3; stroke-linejoin: miter"/>
   </g>
   <g id="patch_5">
    <path d="M 432 194.4 
C 437.728387 194.4 443.222925 196.675912 447.273506 200.726494 
C 451.324088 204.777075 453.6 210.271613 453.6 216 
C 453.6 221.728387 451.324088 227.222925 447.273506 231.273506 
C 443.222925 235.324088 437.728387 237.6 432 237.6 
C 426.271613 237.6 420.777075 235.324088 416.726494 231.273506 
C 412.675912 227.222925 410.4 221.728387 410.4 216 
C 410.4 210.271613 412.675912 204.777075 416.726494 200.726494 
C 420.777075 196.675912 426.271613 194.4 432 194.4 
z
" clip-path="url(#p10a416fccb)" style="fill: #ffffff; stroke: #000000; stroke-width: 1.5; stroke-linejoin: miter"/>
   </g>
   <g id="patch_6">
    <path d="M 504 208.8 
C 505.909462 208.8 507.740975 209.558637 509.091169 210.908831 
C 510.441363 212.259025 511.2 214.090538 511.2 216 
C 511.2 217.909462 510.441363 219.740975 509.091169 221.091169 
C 507.740975 222.441363 505.909462 223.2 504 223.2 
C 502.090538 223.2 500.259025 222.441363 498.908831 221.091169 
C 497.558637 219.740975 496.8 217.909462 496.8 216 
C 496.8 214.090538 497.558637 212.259025 498.908831 210.908831 
C 500.259025 209.558637 502.090538 208.8 504 208.8 
z
" clip-path="url(#p10a416fccb)" style="stroke: #000000; stroke-width: 3; stroke-linejoin: miter"/>
   </g>
   <g id="patch_7">
    <path d="M 504 266.4 
C 509.728387 266.4 515.222925 268.675912 519.273506 272.726494 
C 523.324088 276.777075 525.6 282.271613 525.6 288 
C 525.6 293.728387 523.324088 299.222925 519.273506 303.273506 
C 515.222925 307.324088 509.728387 309.6 504 309.6 
C 498.271613 309.6 492.777075 307.324088 488.726494 303.273506 
C 484.675912 299.222925 482.4 293.728387 482.4 288 
C 482.4 282.271613 484.675912 276.777075 488.726494 272.726494 
C 492.777075 268.675912 498.271613 266.4 504 266.4 
z
" clip-path="url(#p10a416fccb)" style="fill: #ffffff; stroke: #000000; stroke-width: 1.5; stroke-linejoin: miter"/>
   </g>
   <g id="patch_8">
    <path d="M 576 280.8 
C 577.909462 280.8 579.740975 281.558637 581.091169 282.908831 
C 582.441363 284.259025 583.2 286.090538 583.2 288 
C 583.2 289.909462 582.441363 291.740975 581.091169 293.091169 
C 579.740975 294.441363 577.909462 295.2 576 295.2 
C 574.090538 295.2 572.259025 294.441363 570.908831 293.091169 
C 569.558637 291.740975 568.8 289.909462 568.8 288 
C 568.8 286.090538 569.558637 284.259025 570.908831 282.908831 
C 572.259025 281.558637 574.090538 280.8 576 280.8 
z
" clip-path="url(#p10a416fccb)" style="stroke: #000000; stroke-width: 3; stroke-linejoin: miter"/>
   </g>
   <g id="patch_9">
    <path d="M 576 338.4 
C 581.728387 338.4 587.222925 340.675912 591.273506 344.726494 
C 595.324088 348.777075 597.6 354.271613 597.6 360 
C 597.6 365.728387 595.324088 371.222925 591.273506 375.273506 
C 587.222925 379.324088 581.728387 381.6 576 381.6 
C 570.271613 381.6 564.777075 379.324088 560.726494 375.273506 
C 556.675912 371.222925 554.4 365.728387 554.4 360 
C 554.4 354.271613 556.675912 348.777075 560.726494 344.726494 
C 564.777075 340.675912 570.271613 338.4 576 338.4 
z
" clip-path="url(#p10a416fccb)" style="fill: #ffffff; stroke: #000000; stroke-width: 1.5; stroke-linejoin: miter"/>
   </g>
   <g id="patch_10">
    <path d="M 648 352.8 
C 649.909462 352.8 651.740975 353.558637 653.091169 354.908831 
C 654.441363 356.259025 655.2 358.090538 655.2 360 
C 655.2 361.909462 654.441363 363.740975 653.091169 365.091169 
C 651.740975 366.441363 649.909462 367.2 648 367.2 
C 646.090538 367.2 644.259025 366.441363 642.908831 365.091169 
C 641.558637 363.740975 640.8 361.909462 640.8 360 
C 640.8 358.090538 641.558637 356.259025 642.908831 354.908831 
C 644.259025 353.558637 646.090538 352.8 648 352.8 
z
" clip-path="url(#p10a416fccb)" style="stroke: #000000; stroke-width: 3; stroke-linejoin: miter"/>
   </g>
   <g id="patch_11">
    <path d="M 648 50.4 
C 653.728387 50.4 659.222925 52.675912 663.273506 56.726494 
C 667.324088 60.777075 669.6 66.271613 669.6 72 
C 669.6 77.728387 667.324088 83.222925 663.273506 87.273506 
C 659.222925 91.324088 653.728387 93.6 648 93.6 
C 642.271613 93.6 636.777075 91.324088 632.726494 87.273506 
C 628.675912 83.222925 626.4 77.728387 626.4 72 
C 626.4 66.271613 628.675912 60.777075 632.726494 56.726494 
C 636.777075 52.675912 642.271613 50.4 648 50.4 
z
" clip-path="url(#p10a416fccb)" style="fill: #ffffff; stroke: #000000; stroke-width: 1.5; stroke-linejoin: miter"/>
   </g>
   <g id="patch_12">
    <path d="M 936 64.8 
C 937.909462 64.8 939.740975 65.558637 941.091169 66.908831 
C 942.441363 68.259025 943.2 70.090538 943.2 72 
C 943.2 73.909462 942.441363 75.740975 941.091169 77.091169 
C 939.740975 78.441363 937.909462 79.2 936 79.2 
C 934.090538 79.2 932.259025 78.441363 930.908831 77.091169 
C 929.558637 75.740975 928.8 73.909462 928.8 72 
C 928.8 70.090538 929.558637 68.259025 930.908831 66.908831 
C 932.259025 65.558637 934.090538 64.8 936 64.8 
z
" clip-path="url(#p10a416fccb)" style="stroke: #000000; stroke-width: 3; stroke-linejoin: miter"/>
   </g>
   <g id="patch_13">
    <path d="M 936 122.4 
C 941.728387 122.4 947.222925 124.675912 951.273506 128.726494 
C 955.324088 132.777075 957.6 138.271613 957.6 144 
C 957.6 149.728387 955.324088 155.222925 951.273506 159.273506 
C 947.222925 163.324088 941.728387 165.6 936 165.6 
C 930.271613 165.6 924.777075 163.324088 920.726494 159.273506 
C 916.675912 155.222925 914.4 149.728387 914.4 144 
C 914.4 138.271613 916.675912 132.777075 920.726494 128.726494 
C 924.777075 124.675912 930.271613 122.4 936 122.4 
z
" clip-path="url(#p10a416fccb)" style="fill: #ffffff; stroke: #000000; stroke-width: 1.5; stroke-linejoin: miter"/>
   </g>
   <g id="patch_14">
    <path d="M 1008 136.8 
C 1009.909462 136.8 1011.740975 137.558637 1013.091169 138.908831 
C 1014.441363 140.259025 1015.2 142.090538 1015.2 144 
C 1015.2 145.909462 1014.441363 147.740975 1013.091169 149.091169 
C 1011.740975 150.441363 1009.909462 151.2 1008 151.2 
C 1006.090538 151.2 1004.259025 150.441363 1002.908831 149.091169 
C 1001.558637 147.740975 1000.8 145.909462 1000.8 144 
C 1000.8 142.090538 1001.558637 140.259025 1002.908831 138.908831 
C 1004.259025 137.558637 1006.090538 136.8 1008 136.8 
z
" clip-path="url(#p10a416fccb)" style="stroke: #000000; stroke-width: 3; stroke-linejoin: miter"/>
   </g>
   <g id="patch_15">
    <path d="M 1008 194.4 
C 1013.728387 194.4 1019.222925 196.675912 1023.273506 200.726494 
C 1027.324088 204.777075 1029.6 210.271613 1029.6 216 
C 1029.6 221.728387 1027.324088 227.222925 1023.273506 231.273506 
C 1019.222925 235.324088 1013.728387 237.6 1008 237.6 
C 1002.271613 237.6 996.777075 235.324088 992.726494 231.273506 
C 988.675912 227.222925 986.4 221.728387 986.4 216 
C 986.4 210.271613 988.675912 204.777075 992.726494 200.726494 
C 996.777075 196.675912 1002.271613 194.4 1008 194.4 
z
" clip-path="url(#p10a416fccb)" style="fill: #ffffff; stroke: #000000; stroke-width: 1.5; stroke-linejoin: miter"/>
   </g>
   <g id="patch_16">
    <path d="M 1080 208.8 
C 1081.909462 208.8 1083.740975 209.558637 1085.091169 210.908831 
C 1086.441363 212.259025 1087.2 214.090538 1087.2 216 
C 1087.2 217.909462 1086.441363 219.740975 1085.091169 221.091169 
C 1083.740975 222.441363 1081.909462 223.2 1080 223.2 
C 1078.090538 223.2 1076.259025 222.441363 1074.908831 221.091169 
C 1073.558637 219.740975 1072.8 217.909462 1072.8 216 
C 1072.8 214.090538 1073.558637 212.259025 1074.908831 210.908831 
C 1076.259025 209.558637 1078.090538 208.8 1080 208.8 
z
" clip-path="url(#p10a416fccb)" style="stroke: #000000; stroke-width: 3; stroke-linejoin: miter"/>
   </g>
   <g id="patch_17">
    <path d="M 1080 266.4 
C 1085.728387 266.4 1091.222925 268.675912 1095.273506 272.726494 
C 1099.324088 276.777075 1101.6 282.271613 1101.6 288 
C 1101.6 293.728387 1099.324088 299.222925 1095.273506 303.273506 
C 1091.222925 307.324088 1085.728387 309.6 1080 309.6 
C 1074.271613 309.6 1068.777075 307.324088 1064.726494 303.273506 
C 1060.675912 299.222925 1058.4 293.728387 1058.4 288 
C 1058.4 282.271613 1060.675912 276.777075 1064.726494 272.726494 
C 1068.777075 268.675912 1074.271613 266.4 1080 266.4 
z
" clip-path="url(#p10a416fccb)" style="fill: #ffffff; stroke: #000000; stroke-width: 1.5; stroke-linejoin: miter"/>
   </g>
   <g id="patch_18">
    <path d="M 1152 280.8 
C 1153.909462 280.8 1155.740975 281.558637 1157.091169 282.908831 
C 1158.441363 284.259025 1159.2 286.090538 1159.2 288 
C 1159.2 289.909462 1158.441363 291.740975 1157.091169 293.091169 
C 1155.740975 294.441363 1153.909462 295.2 1152 295.2 
C 1150.090538 295.2 1148.259025 294.441363 1146.908831 293.091169 
C 1145.558637 291.740975 1144.8 289.909462 1144.8 288 
C 1144.8 286.090538 1145.558637 284.259025 1146.908831 282.908831 
C 1148.259025 281.558637 1150.090538 280.8 1152 280.8 
z
" clip-path="url(#p10a416fccb)" style="stroke: #000000; stroke-width: 3; stroke-linejoin: miter"/>
   </g>
   <g id="patch_19">
    <path d="M 1152 338.4 
C 1157.728387 338.4 1163.222925 340.675912 1167.273506 344.726494 
C 1171.324088 348.777075 1173.6 354.271613 1173.6 360 
C 1173.6 365.728387 1171.324088 371.222925 1167.273506 375.273506 
C 1163.222925 379.324088 1157.728387 381.6 1152 381.6 
C 1146.271613 381.6 1140.777075 379.324088 1136.726494 375.273506 
C 1132.675912 371.222925 1130.4 365.728387 1130.4 360 
C 1130.4 354.271613 1132.675912 348.777075 1136.726494 344.726494 
C 1140.777075 340.675912 1146.271613 338.4 1152 338.4 
z
" clip-path="url(#p10a416fccb)" style="fill: #ffffff; stroke: #000000; stroke-width: 1.5; stroke-linejoin: miter"/>
   </g>
   <g id="patch_20">
    <path d="M 1224 352.8 
C 1225.909462 352.8 1227.740975 353.558637 1229.091169 354.908831 
C 1230.441363 356.259025 1231.2 358.090538 1231.2 360 
C 1231.2 361.909462 1230.441363 363.740975 1229.091169 365.091169 
C 1227.740975 366.441363 1225.909462 367.2 1224 367.2 
C 1222.090538 367.2 1220.259025 366.441363 1218.908831 365.091169 
C 1217.558637 363.740975 1216.8 361.909462 1216.8 360 
C 1216.8 358.090538 1217.558637 356.259025 1218.908831 354.908831 
C 1220.259025 353.558637 1222.090538 352.8 1224 352.8 
z
" clip-path="url(#p10a416fccb)" style="stroke: #000000; stroke-width: 3; stroke-linejoin: miter"/>
   </g>
   <g id="patch_21">
    <path d="M 1224 50.4 
C 1229.728387 50.4 1235.222925 52.675912 1239.273506 56.726494 
C 1243.324088 60.777075 1245.6 66.271613 1245.6 72 
C 1245.6 77.728387 1243.324088 83.222925 1239.273506 87.273506 
C 1235.222925 91.324088 1229.728387 93.6 1224 93.6 
C 1218.271613 93.6 1212.777075 91.324088 1208.726494 87.273506 
C 1204.675912 83.222925 1202.4 77.728387 1202.4 72 
C 1202.4 66.271613 1204.675912 60.777075 1208.726494 56.726494 
C 1212.777075 52.675912 1218.271613 50.4 1224 50.4 
z
" clip-path="url(#p10a416fccb)" style="fill: #ffffff; stroke: #000000; stroke-width: 1.5; stroke-linejoin: miter"/>
   </g>
   <g id="patch_22">
    <path d="M 1512 64.8 
C 1513.909462 64.8 1515.740975 65.558637 1517.091169 66.908831 
C 1518.441363 68.259025 1519.2 70.090538 1519.2 72 
C 1519.2 73.909462 1518.441363 75.740975 1517.091169 77.091169 
C 1515.740975 78.441363 1513.909462 79.2 1512 79.2 
C 1510.090538 79.2 1508.259025 78.441363 1506.908831 77.091169 
C 1505.558637 75.740975 1504.8 73.909462 1504.8 72 
C 1504.8 70.090538 1505.558637 68.259025 1506.908831 66.908831 
C 1508.259025 65.558637 1510.090538 64.8 1512 64.8 
z
" clip-path="url(#p10a416fccb)" style="stroke: #000000; stroke-width: 3; stroke-linejoin: miter"/>
   </g>
   <g id="patch_23">
    <path d="M 1512 122.4 
C 1517.728387 122.4 1523.222925 124.675912 1527.273506 128.726494 
C 1531.324088 132.777075 1533.6 138.271613 1533.6 144 
C 1533.6 149.728387 1531.324088 155.222925 1527.273506 159.273506 
C 1523.222925 163.324088 1517.728387 165.6 1512 165.6 
C 1506.271613 165.6 1500.777075 163.324088 1496.726494 159.273506 
C 1492.675912 155.222925 1490.4 149.728387 1490.4 144 
C 1490.4 138.271613 1492.675912 132.777075 1496.726494 128.726494 
C 1500.777075 124.675912 1506.271613 122.4 1512 122.4 
z
" clip-path="url(#p10a416fccb)" style="fill: #ffffff; stroke: #000000; stroke-width: 1.5; stroke-linejoin: miter"/>
   </g>
   <g id="patch_24">
    <path d="M 1584 136.8 
C 1585.909462 136.8 1587.740975 137.558637 1589.091169 138.908831 
C 1590.441363 140.259025 1591.2 142.090538 1591.2 144 
C 1591.2 145.909462 1590.441363 147.740975 1589.091169 149.091169 
C 1587.740975 150.441363 1585.909462 151.2 1584 151.2 
C 1582.090538 151.2 1580.259025 150.441363 1578.908831 149.091169 
C 1577.558637 147.740975 1576.8 145.909462 1576.8 144 
C 1576.8 142.090538 1577.558637 140.259025 1578.908831 138.908831 
C 1580.259025 137.558637 1582.090538 136.8 1584 136.8 
z
" clip-path="url(#p10a416fccb)" style="stroke: #000000; stroke-width: 3; stroke-linejoin: miter"/>
   </g>
   <g id="patch_25">
    <path d="M 1584 194.4 
C 1589.728387 194.4 1595.222925 196.675912 1599.273506 200.726494 
C 1603.324088 204.777075 1605.6 210.271613 1605.6 216 
C 1605.6 221.728387 1603.324088 227.222925 1599.273506 231.273506 
C 1595.222925 235.324088 1589.728387 237.6 1584 237.6 
C 1578.271613 237.6 1572.777075 235.324088 1568.726494 231.273506 
C 1564.675912 227.222925 1562.4 221.728387 1562.4 216 
C 1562.4 210.271613 1564.675912 204.777075 1568.726494 200.726494 
C 1572.777075 196.675912 1578.271613 194.4 1584 194.4 
z
" clip-path="url(#p10a416fccb)" style="fill: #ffffff; stroke: #000000; stroke-width: 1.5; stroke-linejoin: miter"/>
   </g>
   <g id="patch_26">
    <path d="M 1656 208.8 
C 1657.909462 208.8 1659.740975 209.558637 1661.091169 210.908831 
C 1662.441363 212.259025 1663.2 214.090538 1663.2 216 
C 1663.2 217.909462 1662.441363 219.740975 1661.091169 221.091169 
C 1659.740975 222.441363 1657.909462 223.2 1656 223.2 
C 1654.090538 223.2 1652.259025 222.441363 1650.908831 221.091169 
C 1649.558637 219.740975 1648.8 217.909462 1648.8 216 
C 1648.8 214.090538 1649.558637 212.259025 1650.908831 210.908831 
C 1652.259025 209.558637 1654.090538 208.8 1656 208.8 
z
" clip-path="url(#p10a416fccb)" style="stroke: #000000; stroke-width: 3; stroke-linejoin: miter"/>
   </g>
   <g id="patch_27">
    <path d="M 1656 266.4 
C 1661.728387 266.4 1667.222925 268.675912 1671.273506 272.726494 
C 1675.324088 276.777075 1677.6 282.271613 1677.6 288 
C 1677.6 293.728387 1675.324088 299.222925 1671.273506 303.273506 
C 1667.222925 307.324088 1661.728387 309.6 1656 309.6 
C 1650.271613 309.6 1644.777075 307.324088 1640.726494 303.273506 
C 1636.675912 299.222925 1634.4 293.728387 1634.4 288 
C 1634.4 282.271613 1636.675912 276.777075 1640.726494 272.726494 
C 1644.777075 268.675912 1650.271613 266.4 1656 266.4 
z
" clip-path="url(#p10a416fccb)" style="fill: #ffffff; stroke: #000000; stroke-width: 1.5; stroke-linejoin: miter"/>
   </g>
   <g id="patch_28">
    <path d="M 1728 280.8 
C 1729.909462 280.8 1731.740975 281.558637 1733.091169 282.908831 
C 1734.441363 284.259025 1735.2 286.090538 1735.2 288 
C 1735.2 289.909462 1734.441363 291.740975 1733.091169 293.091169 
C 1731.740975 294.441363 1729.909462 295.2 1728 295.2 
C 1726.090538 295.2 1724.259025 294.441363 1722.908831 293.091169 
C 1721.558637 291.740975 1720.8 289.909462 1720.8 288 
C 1720.8 286.090538 1721.558637 284.259025 1722.908831 282.908831 
C 1724.259025 281.558637 1726.090538 280.8 1728 280.8 
z
" clip-path="url(#p10a416fccb)" style="stroke: #000000; stroke-width: 3; stroke-linejoin: miter"/>
   </g>
   <g id="patch_29">
    <path d="M 1728 338.4 
C 1733.728387 338.4 1739.222925 340.675912 1743.273506 344.726494 
C 1747.324088 348.777075 1749.6 354.271613 1749.6 360 
C 1749.6 365.728387 1747.324088 371.222925 1743.273506 375.273506 
C 1739.222925 379.324088 1733.728387 381.6 1728 381.6 
C 1722.271613 381.6 1716.777075 379.324088 1712.726494 375.273506 
C 1708.675912 371.222925 1706.4 365.728387 1706.4 360 
C 1706.4 354.271613 1708.675912 348.777075 1712.726494 344.726494 
C 1716.777075 340.675912 1722.271613 338.4 1728 338.4 
z
" clip-path="url(#p10a416fccb)" style="fill: #ffffff; stroke: #000000; stroke-width: 1.5; stroke-linejoin: miter"/>
   </g>
   <g id="patch_30">
    <path d="M 1800 352.8 
C 1801.909462 352.8 1803.740975 353.558637 1805.091169 354.908831 
C 1806.441363 356.259025 1807.2 358.090538 1807.2 360 
C 1807.2 361.909462 1806.441363 363.740975 1805.091169 365.091169 
C 1803.740975 366.441363 1801.909462 367.2 1800 367.2 
C 1798.090538 367.2 1796.259025 366.441363 1794.908831 365.091169 
C 1793.558637 363.740975 1792.8 361.909462 1792.8 360 
C 1792.8 358.090538 1793.558637 356.259025 1794.908831 354.908831 
C 1796.259025 353.558637 1798.090538 352.8 1800 352.8 
z
" clip-path="url(#p10a416fccb)" style="stroke: #000000; stroke-width: 3; stroke-linejoin: miter"/>
   </g>
   <g id="patch_31">
    <path d="M 1800 50.4 
C 1805.728387 50.4 1811.222925 52.675912 1815.273506 56.726494 
C 1819.324088 60.777075 1821.6 66.271613 1821.6 72 
C 1821.6 77.728387 1819.324088 83.222925 1815.273506 87.273506 
C 1811.222925 91.324088 1805.728387 93.6 1800 93.6 
C 1794.271613 93.6 1788.777075 91.324088 1784.726494 87.273506 
C 1780.675912 83.222925 1778.4 77.728387 1778.4 72 
C 1778.4 66.271613 1780.675912 60.777075 1784.726494 56.726494 
C 1788.777075 52.675912 1794.271613 50.4 1800 50.4 
z
" clip-path="url(#p10a416fccb)" style="fill: #ffffff; stroke: #000000; stroke-width: 1.5; stroke-linejoin: miter"/>
   </g>
   <g id="patch_32">
    <path d="M 2088 64.8 
C 2089.909462 64.8 2091.740975 65.558637 2093.091169 66.908831 
C 2094.441363 68.259025 2095.2 70.090538 2095.2 72 
C 2095.2 73.909462 2094.441363 75.740975 2093.091169 77.091169 
C 2091.740975 78.441363 2089.909462 79.2 2088 79.2 
C 2086.090538 79.2 2084.259025 78.441363 2082.908831 77.091169 
C 2081.558637 75.740975 2080.8 73.909462 2080.8 72 
C 2080.8 70.090538 2081.558637 68.259025 2082.908831 66.908831 
C 2084.259025 65.558637 2086.090538 64.8 2088 64.8 
z
" clip-path="url(#p10a416fccb)" style="stroke: #000000; stroke-width: 3; stroke-linejoin: miter"/>
   </g>
   <g id="patch_33">
    <path d="M 2088 122.4 
C 2093.728387 122.4 2099.222925 124.675912 2103.273506 128.726494 
C 2107.324088 132.777075 2109.6 138.271613 2109.6 144 
C 2109.6 149.728387 2107.324088 155.222925 2103.273506 159.273506 
C 2099.222925 163.324088 2093.728387 165.6 2088 165.6 
C 2082.271613 165.6 2076.777075 163.324088 2072.726494 159.273506 
C 2068.675912 155.222925 2066.4 149.728387 2066.4 144 
C 2066.4 138.271613 2068.675912 132.777075 2072.726494 128.726494 
C 2076.777075 124.675912 2082.271613 122.4 2088 122.4 
z
" clip-path="url(#p10a416fccb)" style="fill: #ffffff; stroke: #000000; stroke-width: 1.5; stroke-linejoin: miter"/>
   </g>
   <g id="patch_34">
    <path d="M 2160 136.8 
C 2161.909462 136.8 2163.740975 137.558637 2165.091169 138.908831 
C 2166.441363 140.259025 2167.2 142.090538 2167.2 144 
C 2167.2 145.909462 2166.441363 147.740975 2165.091169 149.091169 
C 2163.740975 150.441363 2161.909462 151.2 2160 151.2 
C 2158.090538 151.2 2156.259025 150.441363 2154.908831 149.091169 
C 2153.558637 147.740975 2152.8 145.909462 2152.8 144 
C 2152.8 142.090538 2153.558637 140.259025 2154.908831 138.908831 
C 2156.259025 137.558637 2158.090538 136.8 2160 136.8 
z
" clip-path="url(#p10a416fccb)" style="stroke: #000000; stroke-width: 3; stroke-linejoin: miter"/>
   </g>
   <g id="patch_35">
    <path d="M 2160 194.4 
C 2165.728387 194.4 2171.222925 196.675912 2175.273506 200.726494 
C 2179.324088 204.777075 2181.6 210.271613 2181.6 216 
C 2181.6 221.728387 2179.324088 227.222925 2175.273506 231.273506 
C 2171.222925 235.324088 2165.728387 237.6 2160 237.6 
C 2154.271613 237.6 2148.777075 235.324088 2144.726494 231.273506 
C 2140.675912 227.222925 2138.4 221.728387 2138.4 216 
C 2138.4 210.271613 2140.675912 204.777075 2144.726494 200.726494 
C 2148.777075 196.675912 2154.271613 194.4 2160 194.4 
z
" clip-path="url(#p10a416fccb)" style="fill: #ffffff; stroke: #000000; stroke-width: 1.5; stroke-linejoin: miter"/>
   </g>
   <g id="patch_36">
    <path d="M 2232 208.8 
C 2233.909462 208.8 2235.740975 209.558637 2237.091169 210.908831 
C 2238.441363 212.259025 2239.2 214.090538 2239.2 216 
C 2239.2 217.909462 2238.441363 219.740975 2237.091169 221.091169 
C 2235.740975 222.441363 2233.909462 223.2 2232 223.2 
C 2230.090538 223.2 2228.259025 222.441363 2226.908831 221.091169 
C 2225.558637 219.740975 2224.8 217.909462 2224.8 216 
C 2224.8 214.090538 2225.558637 212.259025 2226.908831 210.908831 
C 2228.259025 209.558637 2230.090538 208.8 2232 208.8 
z
" clip-path="url(#p10a416fccb)" style="stroke: #000000; stroke-width: 3; stroke-linejoin: miter"/>
   </g>
   <g id="patch_37">
    <path d="M 2232 266.4 
C 2237.728387 266.4 2243.222925 268.675912 2247.273506 272.726494 
C 2251.324088 276.777075 2253.6 282.271613 2253.6 288 
C 2253.6 293.728387 2251.324088 299.222925 2247.273506 303.273506 
C 2243.222925 307.324088 2237.728387 309.6 2232 309.6 
C 2226.271613 309.6 2220.777075 307.324088 2216.726494 303.273506 
C 2212.675912 299.222925 2210.4 293.728387 2210.4 288 
C 2210.4 282.271613 2212.675912 276.777075 2216.726494 272.726494 
C 2220.777075 268.675912 2226.271613 266.4 2232 266.4 
z
" clip-path="url(#p10a416fccb)" style="fill: #ffffff; stroke: #000000; stroke-width: 1.5; stroke-linejoin: miter"/>
   </g>
   <g id="patch_38">
    <path d="M 2304 280.8 
C 2305.909462 280.8 2307.740975 281.558637 2309.091169 282.908831 
C 2310.441363 284.259025 2311.2 286.090538 2311.2 288 
C 2311.2 289.909462 2310.441363 291.740975 2309.091169 293.091169 
C 2307.740975 294.441363 2305.909462 295.2 2304 295.2 
C 2302.090538 295.2 2300.259025 294.441363 2298.908831 293.091169 
C 2297.558637 291.740975 2296.8 289.909462 2296.8 288 
C 2296.8 286.090538 2297.558637 284.259025 2298.908831 282.908831 
C 2300.259025 281.558637 2302.090538 280.8 2304 280.8 
z
" clip-path="url(#p10a416fccb)" style="stroke: #000000; stroke-width: 3; stroke-linejoin: miter"/>
   </g>
   <g id="patch_39">
    <path d="M 2304 338.4 
C 2309.728387 338.4 2315.222925 340.675912 2319.273506 344.726494 
C 2323.324088 348.777075 2325.6 354.271613 2325.6 360 
C 2325.6 365.728387 2323.324088 371.222925 2319.273506 375.273506 
C 2315.222925 379.324088 2309.728387 381.6 2304 381.6 
C 2298.271613 381.6 2292.777075 379.324088 2288.726494 375.273506 
C 2284.675912 371.222925 2282.4 365.728387 2282.4 360 
C 2282.4 354.271613 2284.675912 348.777075 2288.726494 344.726494 
C 2292.777075 340.675912 2298.271613 338.4 2304 338.4 
z
" clip-path="url(#p10a416fccb)" style="fill: #ffffff; stroke: #000000; stroke-width: 1.5; stroke-linejoin: miter"/>
   </g>
   <g id="patch_40">
    <path d="M 2376 352.8 
C 2377.909462 352.8 2379.740975 353.558637 2381.091169 354.908831 
C 2382.441363 356.259025 2383.2 358.090538 2383.2 360 
C 2383.2 361.909462 2382.441363 363.740975 2381.091169 365.091169 
C 2379.740975 366.441363 2377.909462 367.2 2376 367.2 
C 2374.090538 367.2 2372.259025 366.441363 2370.908831 365.091169 
C 2369.558637 363.740975 2368.8 361.909462 2368.8 360 
C 2368.8 358.090538 2369.558637 356.259025 2370.908831 354.908831 
C 2372.259025 353.558637 2374.090538 352.8 2376 352.8 
z
" clip-path="url(#p10a416fccb)" style="stroke: #000000; stroke-width: 3; stroke-linejoin: miter"/>
   </g>
   <g id="patch_41">
    <path d="M 2376 50.4 
C 2381.728387 50.4 2387.222925 52.675912 2391.273506 56.726494 
C 2395.324088 60.777075 2397.6 66.271613 2397.6 72 
C 2397.6 77.728387 2395.324088 83.222925 2391.273506 87.273506 
C 2387.222925 91.324088 2381.728387 93.6 2376 93.6 
C 2370.271613 93.6 2364.777075 91.324088 2360.726494 87.273506 
C 2356.675912 83.222925 2354.4 77.728387 2354.4 72 
C 2354.4 66.271613 2356.675912 60.777075 2360.726494 56.726494 
C 2364.777075 52.675912 2370.271613 50.4 2376 50.4 
z
" clip-path="url(#p10a416fccb)" style="fill: #ffffff; stroke: #000000; stroke-width: 1.5; stroke-linejoin: miter"/>
   </g>
   <g id="patch_42">
    <path d="M 2664 64.8 
C 2665.909462 64.8 2667.740975 65.558637 2669.091169 66.908831 
C 2670.441363 68.259025 2671.2 70.090538 2671.2 72 
C 2671.2 73.909462 2670.441363 75.740975 2669.091169 77.091169 
C 2667.740975 78.441363 2665.909462 79.2 2664 79.2 
C 2662.090538 79.2 2660.259025 78.441363 2658.908831 77.091169 
C 2657.558637 75.740975 2656.8 73.909462 2656.8 72 
C 2656.8 70.090538 2657.558637 68.259025 2658.908831 66.908831 
C 2660.259025 65.558637 2662.090538 64.8 2664 64.8 
z
" clip-path="url(#p10a416fccb)" style="stroke: #000000; stroke-width: 3; stroke-linejoin: miter"/>
   </g>
   <g id="patch_43">
    <path d="M 2664 122.4 
C 2669.728387 122.4 2675.222925 124.675912 2679.273506 128.726494 
C 2683.324088 132.777075 2685.6 138.271613 2685.6 144 
C 2685.6 149.728387 2683.324088 155.222925 2679.273506 159.273506 
C 2675.222925 163.324088 2669.728387 165.6 2664 165.6 
C 2658.271613 165.6 2652.777075 163.324088 2648.726494 159.273506 
C 2644.675912 155.222925 2642.4 149.728387 2642.4 144 
C 2642.4 138.271613 2644.675912 132.777075 2648.726494 128.726494 
C 2652.777075 124.675912 2658.271613 122.4 2664 122.4 
z
" clip-path="url(#p10a416fccb)" style="fill: #ffffff; stroke: #000000; stroke-width: 1.5; stroke-linejoin: miter"/>
   </g>
   <g id="patch_44">
    <path d="M 2736 136.8 
C 2737.909462 136.8 2739.740975 137.558637 2741.091169 138.908831 
C 2742.441363 140.259025 2743.2 142.090538 2743.2 144 
C 2743.2 145.909462 2742.441363 147.740975 2741.091169 149.091169 
C 2739.740975 150.441363 2737.909462 151.2 2736 151.2 
C 2734.090538 151.2 2732.259025 150.441363 2730.908831 149.091169 
C 2729.558637 147.740975 2728.8 145.909462 2728.8 144 
C 2728.8 142.090538 2729.558637 140.259025 2730.908831 138.908831 
C 2732.259025 137.558637 2734.090538 136.8 2736 136.8 
z
" clip-path="url(#p10a416fccb)" style="stroke: #000000; stroke-width: 3; stroke-linejoin: miter"/>
   </g>
   <g id="patch_45">
    <path d="M 2736 194.4 
C 2741.728387 194.4 2747.222925 196.675912 2751.273506 200.726494 
C 2755.324088 204.777075 2757.6 210.271613 2757.6 216 
C 2757.6 221.728387 2755.324088 227.222925 2751.273506 231.273506 
C 2747.222925 235.324088 2741.728387 237.6 2736 237.6 
C 2730.271613 237.6 2724.777075 235.324088 2720.726494 231.273506 
C 2716.675912 227.222925 2714.4 221.728387 2714.4 216 
C 2714.4 210.271613 2716.675912 204.777075 2720.726494 200.726494 
C 2724.777075 196.675912 2730.271613 194.4 2736 194.4 
z
" clip-path="url(#p10a416fccb)" style="fill: #ffffff; stroke: #000000; stroke-width: 1.5; stroke-linejoin: miter"/>
   </g>
   <g id="patch_46">
    <path d="M 2808 208.8 
C 2809.909462 208.8 2811.740975 209.558637 2813.091169 210.908831 
C 2814.441363 212.259025 2815.2 214.090538 2815.2 216 
C 2815.2 217.909462 2814.441363 219.740975 2813.091169 221.091169 
C 2811.740975 222.441363 2809.909462 223.2 2808 223.2 
C 2806.090538 223.2 2804.259025 222.441363 2802.908831 221.091169 
C 2801.558637 219.740975 2800.8 217.909462 2800.8 216 
C 2800.8 214.090538 2801.558637 212.259025 2802.908831 210.908831 
C 2804.259025 209.558637 2806.090538 208.8 2808 208.8 
z
" clip-path="url(#p10a416fccb)" style="stroke: #000000; stroke-width: 3; stroke-linejoin: miter"/>
   </g>
   <g id="patch_47">
    <path d="M 2808 266.4 
C 2813.728387 266.4 2819.222925 268.675912 2823.273506 272.726494 
C 2827.324088 276.777075 2829.6 282.271613 2829.6 288 
C 2829.6 293.728387 2827.324088 299.222925 2823.273506 303.273506 
C 2819.222925 307.324088 2813.728387 309.6 2808 309.6 
C 2802.271613 309.6 2796.777075 307.324088 2792.726494 303.273506 
C 2788.675912 299.222925 2786.4 293.728387 2786.4 288 
C 2786.4 282.271613 2788.675912 276.777075 2792.726494 272.726494 
C 2796.777075 268.675912 2802.271613 266.4 2808 266.4 
z
" clip-path="url(#p10a416fccb)" style="fill: #ffffff; stroke: #000000; stroke-width: 1.5; stroke-linejoin: miter"/>
   </g>
   <g id="patch_48">
    <path d="M 2880 280.8 
C 2881.909462 280.8 2883.740975 281.558637 2885.091169 282.908831 
C 2886.441363 284.259025 2887.2 286.090538 2887.2 288 
C 2887.2 289.909462 2886.441363 291.740975 2885.091169 293.091169 
C 2883.740975 294.441363 2881.909462 295.2 2880 295.2 
C 2878.090538 295.2 2876.259025 294.441363 2874.908831 293.091169 
C 2873.558637 291.740975 2872.8 289.909462 2872.8 288 
C 2872.8 286.090538 2873.558637 284.259025 2874.908831 282.908831 
C 2876.259025 281.558637 2878.090538 280.8 2880 280.8 
z
" clip-path="url(#p10a416fccb)" style="stroke: #000000; stroke-width: 3; stroke-linejoin: miter"/>
   </g>
   <g id="patch_49">
    <path d="M 2880 338.4 
C 2885.728387 338.4 2891.222925 340.675912 2895.273506 344.726494 
C 2899.324088 348.777075 2901.6 354.271613 2901.6 360 
C 2901.6 365.728387 2899.324088 371.222925 2895.273506 375.273506 
C 2891.222925 379.324088 2885.728387 381.6 2880 381.6 
C 2874.271613 381.6 2868.777075 379.324088 2864.726494 375.273506 
C 2860.675912 371.222925 2858.4 365.728387 2858.4 360 
C 2858.4 354.271613 2860.675912 348.777075 2864.726494 344.726494 
C 2868.777075 340.675912 2874.271613 338.4 2880 338.4 
z
" clip-path="url(#p10a416fccb)" style="fill: #ffffff; stroke: #000000; stroke-width: 1.5; stroke-linejoin: miter"/>
   </g>
   <g id="patch_50">
    <path d="M 2952 352.8 
C 2953.909462 352.8 2955.740975 353.558637 2957.091169 354.908831 
C 2958.441363 356.259025 2959.2 358.090538 2959.2 360 
C 2959.2 361.909462 2958.441363 363.740975 2957.091169 365.091169 
C 2955.740975 366.441363 2953.909462 367.2 2952 367.2 
C 2950.090538 367.2 2948.259025 366.441363 2946.908831 365.091169 
C 2945.558637 363.740975 2944.8 361.909462 2944.8 360 
C 2944.8 358.090538 2945.558637 356.259025 2946.908831 354.908831 
C 2948.259025 353.558637 2950.090538 352.8 2952 352.8 
z
" clip-path="url(#p10a416fccb)" style="stroke: #000000; stroke-width: 3; stroke-linejoin: miter"/>
   </g>
   <g id="patch_51">
    <path d="M 2952 50.4 
C 2957.728387 50.4 2963.222925 52.675912 2967.273506 56.726494 
C 2971.324088 60.777075 2973.6 66.271613 2973.6 72 
C 2973.6 77.728387 2971.324088 83.222925 2967.273506 87.273506 
C 2963.222925 91.324088 2957.728387 93.6 2952 93.6 
C 2946.271613 93.6 2940.777075 91.324088 2936.726494 87.273506 
C 2932.675912 83.222925 2930.4 77.728387 2930.4 72 
C 2930.4 66.271613 2932.675912 60.777075 2936.726494 56.726494 
C 2940.777075 52.675912 2946.271613 50.4 2952 50.4 
z
" clip-path="url(#p10a416fccb)" style="fill: #ffffff; stroke: #000000; stroke-width: 1.5; stroke-linejoin: miter"/>
   </g>
   <g id="patch_52">
    <path d="M 131.4 45 
L 156.6 45 
Q 171 45 171 59.4 
L 171 84.6 
Q 171 99 156.6 99 
L 131.4 99 
Q 117 99 117 84.6 
L 117 59.4 
Q 117 45 131.4 45 
z
" clip-path="url(#p10a416fccb)" style="fill: #ffffff; stroke: #000000; stroke-width: 3; stroke-linejoin: miter"/>
   </g>
   <g id="patch_53">
    <path d="M 131.4 117 
L 156.6 117 
Q 171 117 171 131.4 
L 171 156.6 
Q 171 171 156.6 171 
L 131.4 171 
Q 117 171 117 156.6 
L 117 131.4 
Q 117 117 131.4 117 
z
" clip-path="url(#p10a416fccb)" style="fill: #ffffff; stroke: #000000; stroke-width: 3; stroke-linejoin: miter"/>
   </g>
   <g id="patch_54">
    <path d="M 131.4 189 
L 156.6 189 
Q 171 189 171 203.4 
L 171 228.6 
Q 171 243 156.6 243 
L 131.4 243 
Q 117 243 117 228.6 
L 117 203.4 
Q 117 189 131.4 189 
z
" clip-path="url(#p10a416fccb)" style="fill: #ffffff; stroke: #000000; stroke-width: 3; stroke-linejoin: miter"/>
   </g>
   <g id="patch_55">
    <path d="M 131.4 261 
L 156.6 261 
Q 171 261 171 275.4 
L 171 300.6 
Q 171 315 156.6 315 
L 131.4 315 
Q 117 315 117 300.6 
L 117 275.4 
Q 117 261 131.4 261 
z
" clip-path="url(#p10a416fccb)" style="fill: #ffffff; stroke: #000000; stroke-width: 3; stroke-linejoin: miter"/>
   </g>
   <g id="patch_56">
    <path d="M 131.4 333 
L 156.6 333 
Q 171 333 171 347.4 
L 171 372.6 
Q 171 387 156.6 387 
L 131.4 387 
Q 117 387 117 372.6 
L 117 347.4 
Q 117 333 131.4 333 
z
" clip-path="url(#p10a416fccb)" style="fill: #ffffff; stroke: #000000; stroke-width: 3; stroke-linejoin: miter"/>
   </g>
   <g id="patch_57">
    <path d="M 203.4 45 
L 228.6 45 
Q 243 45 243 59.4 
L 243 84.6 
Q 243 99 228.6 99 
L 203.4 99 
Q 189 99 189 84.6 
L 189 59.4 
Q 189 45 203.4 45 
z
" clip-path="url(#p10a416fccb)" style="fill: #ffffff; stroke: #000000; stroke-width: 3; stroke-linejoin: miter"/>
   </g>
   <g id="patch_58">
    <path d="M 203.4 117 
L 228.6 117 
Q 243 117 243 131.4 
L 243 156.6 
Q 243 171 228.6 171 
L 203.4 171 
Q 189 171 189 156.6 
L 189 131.4 
Q 189 117 203.4 117 
z
" clip-path="url(#p10a416fccb)" style="fill: #ffffff; stroke: #000000; stroke-width: 3; stroke-linejoin: miter"/>
   </g>
   <g id="patch_59">
    <path d="M 203.4 189 
L 228.6 189 
Q 243 189 243 203.4 
L 243 228.6 
Q 243 243 228.6 243 
L 203.4 243 
Q 189 243 189 228.6 
L 189 203.4 
Q 189 189 203.4 189 
z
" clip-path="url(#p10a416fccb)" style="fill: #ffffff; stroke: #000000; stroke-width: 3; stroke-linejoin: miter"/>
   </g>
   <g id="patch_60">
    <path d="M 203.4 261 
L 228.6 261 
Q 243 261 243 275.4 
L 243 300.6 
Q 243 315 228.6 315 
L 203.4 315 
Q 189 315 189 300.6 
L 189 275.4 
Q 189 261 203.4 261 
z
" clip-path="url(#p10a416fccb)" style="fill: #ffffff; stroke: #000000; stroke-width: 3; stroke-linejoin: miter"/>
   </g>
   <g id="patch_61">
    <path d="M 203.4 333 
L 228.6 333 
Q 243 333 243 347.4 
L 243 372.6 
Q 243 387 228.6 387 
L 203.4 387 
Q 189 387 189 372.6 
L 189 347.4 
Q 189 333 203.4 333 
z
" clip-path="url(#p10a416fccb)" style="fill: #ffffff; stroke: #000000; stroke-width: 3; stroke-linejoin: miter"/>
   </g>
   <g id="patch_62">
    <path d="M 275.4 45 
L 300.6 45 
Q 315 45 315 59.4 
L 315 84.6 
Q 315 99 300.6 99 
L 275.4 99 
Q 261 99 261 84.6 
L 261 59.4 
Q 261 45 275.4 45 
z
" clip-path="url(#p10a416fccb)" style="fill: #ffffff; stroke: #000000; stroke-width: 3; stroke-linejoin: miter"/>
   </g>
   <g id="patch_63">
    <path d="M 275.4 117 
L 300.6 117 
Q 315 117 315 131.4 
L 315 156.6 
Q 315 171 300.6 171 
L 275.4 171 
Q 261 171 261 156.6 
L 261 131.4 
Q 261 117 275.4 117 
z
" clip-path="url(#p10a416fccb)" style="fill: #ffffff; stroke: #000000; stroke-width: 3; stroke-linejoin: miter"/>
   </g>
   <g id="patch_64">
    <path d="M 275.4 189 
L 300.6 189 
Q 315 189 315 203.4 
L 315 228.6 
Q 315 243 300.6 243 
L 275.4 243 
Q 261 243 261 228.6 
L 261 203.4 
Q 261 189 275.4 189 
z
" clip-path="url(#p10a416fccb)" style="fill: #ffffff; stroke: #000000; stroke-width: 3; stroke-linejoin: miter"/>
   </g>
   <g id="patch_65">
    <path d="M 275.4 261 
L 300.6 261 
Q 315 261 315 275.4 
L 315 300.6 
Q 315 315 300.6 315 
L 275.4 315 
Q 261 315 261 300.6 
L 261 275.4 
Q 261 261 275.4 261 
z
" clip-path="url(#p10a416fccb)" style="fill: #ffffff; stroke: #000000; stroke-width: 3; stroke-linejoin: miter"/>
   </g>
   <g id="patch_66">
    <path d="M 275.4 333 
L 300.6 333 
Q 315 333 315 347.4 
L 315 372.6 
Q 315 387 300.6 387 
L 275.4 387 
Q 261 387 261 372.6 
L 261 347.4 
Q 261 333 275.4 333 
z
" clip-path="url(#p10a416fccb)" style="fill: #ffffff; stroke: #000000; stroke-width: 3; stroke-linejoin: miter"/>
   </g>
   <g id="line2d_31">
    <path d="M 360 122.4 
L 360 165.6 
" clip-path="url(#p10a416fccb)" style="fill: none; stroke: #000000; stroke-width: 1.5; stroke-linecap: square"/>
   </g>
   <g id="line2d_32">
    <path d="M 338.4 144 
L 381.6 144 
" clip-path="url(#p10a416fccb)" style="fill: none; stroke: #000000; stroke-width: 1.5; stroke-linecap: square"/>
   </g>
   <g id="line2d_33">
    <path d="M 432 194.4 
L 432 237.6 
" clip-path="url(#p10a416fccb)" style="fill: none; stroke: #000000; stroke-width: 1.5; stroke-linecap: square"/>
   </g>
   <g id="line2d_34">
    <path d="M 410.4 216 
L 453.6 216 
" clip-path="url(#p10a416fccb)" style="fill: none; stroke: #000000; stroke-width: 1.5; stroke-linecap: square"/>
   </g>
   <g id="line2d_35">
    <path d="M 504 266.4 
L 504 309.6 
" clip-path="url(#p10a416fccb)" style="fill: none; stroke: #000000; stroke-width: 1.5; stroke-linecap: square"/>
   </g>
   <g id="line2d_36">
    <path d="M 482.4 288 
L 525.6 288 
" clip-path="url(#p10a416fccb)" style="fill: none; stroke: #000000; stroke-width: 1.5; stroke-linecap: square"/>
   </g>
   <g id="line2d_37">
    <path d="M 576 338.4 
L 576 381.6 
" clip-path="url(#p10a416fccb)" style="fill: none; stroke: #000000; stroke-width: 1.5; stroke-linecap: square"/>
   </g>
   <g id="line2d_38">
    <path d="M 554.4 360 
L 597.6 360 
" clip-path="url(#p10a416fccb)" style="fill: none; stroke: #000000; stroke-width: 1.5; stroke-linecap: square"/>
   </g>
   <g id="line2d_39">
    <path d="M 648 50.4 
L 648 93.6 
" clip-path="url(#p10a416fccb)" style="fill: none; stroke: #000000; stroke-width: 1.5; stroke-linecap: square"/>
   </g>
   <g id="line2d_40">
    <path d="M 626.4 72 
L 669.6 72 
" clip-path="url(#p10a416fccb)" style="fill: none; stroke: #000000; stroke-width: 1.5; stroke-linecap: square"/>
   </g>
   <g id="patch_67">
    <path d="M 707.4 45 
L 732.6 45 
Q 747 45 747 59.4 
L 747 84.6 
Q 747 99 732.6 99 
L 707.4 99 
Q 693 99 693 84.6 
L 693 59.4 
Q 693 45 707.4 45 
z
" clip-path="url(#p10a416fccb)" style="fill: #ffffff; stroke: #000000; stroke-width: 3; stroke-linejoin: miter"/>
   </g>
   <g id="patch_68">
    <path d="M 707.4 117 
L 732.6 117 
Q 747 117 747 131.4 
L 747 156.6 
Q 747 171 732.6 171 
L 707.4 171 
Q 693 171 693 156.6 
L 693 131.4 
Q 693 117 707.4 117 
z
" clip-path="url(#p10a416fccb)" style="fill: #ffffff; stroke: #000000; stroke-width: 3; stroke-linejoin: miter"/>
   </g>
   <g id="patch_69">
    <path d="M 707.4 189 
L 732.6 189 
Q 747 189 747 203.4 
L 747 228.6 
Q 747 243 732.6 243 
L 707.4 243 
Q 693 243 693 228.6 
L 693 203.4 
Q 693 189 707.4 189 
z
" clip-path="url(#p10a416fccb)" style="fill: #ffffff; stroke: #000000; stroke-width: 3; stroke-linejoin: miter"/>
   </g>
   <g id="patch_70">
    <path d="M 707.4 261 
L 732.6 261 
Q 747 261 747 275.4 
L 747 300.6 
Q 747 315 732.6 315 
L 707.4 315 
Q 693 315 693 300.6 
L 693 275.4 
Q 693 261 707.4 261 
z
" clip-path="url(#p10a416fccb)" style="fill: #ffffff; stroke: #000000; stroke-width: 3; stroke-linejoin: miter"/>
   </g>
   <g id="patch_71">
    <path d="M 707.4 333 
L 732.6 333 
Q 747 333 747 347.4 
L 747 372.6 
Q 747 387 732.6 387 
L 707.4 387 
Q 693 387 693 372.6 
L 693 347.4 
Q 693 333 707.4 333 
z
" clip-path="url(#p10a416fccb)" style="fill: #ffffff; stroke: #000000; stroke-width: 3; stroke-linejoin: miter"/>
   </g>
   <g id="patch_72">
    <path d="M 779.4 45 
L 804.6 45 
Q 819 45 819 59.4 
L 819 84.6 
Q 819 99 804.6 99 
L 779.4 99 
Q 765 99 765 84.6 
L 765 59.4 
Q 765 45 779.4 45 
z
" clip-path="url(#p10a416fccb)" style="fill: #ffffff; stroke: #000000; stroke-width: 3; stroke-linejoin: miter"/>
   </g>
   <g id="patch_73">
    <path d="M 779.4 117 
L 804.6 117 
Q 819 117 819 131.4 
L 819 156.6 
Q 819 171 804.6 171 
L 779.4 171 
Q 765 171 765 156.6 
L 765 131.4 
Q 765 117 779.4 117 
z
" clip-path="url(#p10a416fccb)" style="fill: #ffffff; stroke: #000000; stroke-width: 3; stroke-linejoin: miter"/>
   </g>
   <g id="patch_74">
    <path d="M 779.4 189 
L 804.6 189 
Q 819 189 819 203.4 
L 819 228.6 
Q 819 243 804.6 243 
L 779.4 243 
Q 765 243 765 228.6 
L 765 203.4 
Q 765 189 779.4 189 
z
" clip-path="url(#p10a416fccb)" style="fill: #ffffff; stroke: #000000; stroke-width: 3; stroke-linejoin: miter"/>
   </g>
   <g id="patch_75">
    <path d="M 779.4 261 
L 804.6 261 
Q 819 261 819 275.4 
L 819 300.6 
Q 819 315 804.6 315 
L 779.4 315 
Q 765 315 765 300.6 
L 765 275.4 
Q 765 261 779.4 261 
z
" clip-path="url(#p10a416fccb)" style="fill: #ffffff; stroke: #000000; stroke-width: 3; stroke-linejoin: miter"/>
   </g>
   <g id="patch_76">
    <path d="M 779.4 333 
L 804.6 333 
Q 819 333 819 347.4 
L 819 372.6 
Q 819 387 804.6 387 
L 779.4 387 
Q 765 387 765 372.6 
L 765 347.4 
Q 765 333 779.4 333 
z
" clip-path="url(#p10a416fccb)" style="fill: #ffffff; stroke: #000000; stroke-width: 3; stroke-linejoin: miter"/>
   </g>
   <g id="patch_77">
    <path d="M 851.4 45 
L 876.6 45 
Q 891 45 891 59.4 
L 891 84.6 
Q 891 99 876.6 99 
L 851.4 99 
Q 837 99 837 84.6 
L 837 59.4 
Q 837 45 851.4 45 
z
" clip-path="url(#p10a416fccb)" style="fill: #ffffff; stroke: #000000; stroke-width: 3; stroke-linejoin: miter"/>
   </g>
   <g id="patch_78">
    <path d="M 851.4 117 
L 876.6 117 
Q 891 117 891 131.4 
L 891 156.6 
Q 891 171 876.6 171 
L 851.4 171 
Q 837 171 837 156.6 
L 837 131.4 
Q 837 117 851.4 117 
z
" clip-path="url(#p10a416fccb)" style="fill: #ffffff; stroke: #000000; stroke-width: 3; stroke-linejoin: miter"/>
   </g>
   <g id="patch_79">
    <path d="M 851.4 189 
L 876.6 189 
Q 891 189 891 203.4 
L 891 228.6 
Q 891 243 876.6 243 
L 851.4 243 
Q 837 243 837 228.6 
L 837 203.4 
Q 837 189 851.4 189 
z
" clip-path="url(#p10a416fccb)" style="fill: #ffffff; stroke: #000000; stroke-width: 3; stroke-linejoin: miter"/>
   </g>
   <g id="patch_80">
    <path d="M 851.4 261 
L 876.6 261 
Q 891 261 891 275.4 
L 891 300.6 
Q 891 315 876.6 315 
L 851.4 315 
Q 837 315 837 300.6 
L 837 275.4 
Q 837 261 851.4 261 
z
" clip-path="url(#p10a416fccb)" style="fill: #ffffff; stroke: #000000; stroke-width: 3; stroke-linejoin: miter"/>
   </g>
   <g id="patch_81">
    <path d="M 851.4 333 
L 876.6 333 
Q 891 333 891 347.4 
L 891 372.6 
Q 891 387 876.6 387 
L 851.4 387 
Q 837 387 837 372.6 
L 837 347.4 
Q 837 333 851.4 333 
z
" clip-path="url(#p10a416fccb)" style="fill: #ffffff; stroke: #000000; stroke-width: 3; stroke-linejoin: miter"/>
   </g>
   <g id="line2d_41">
    <path d="M 936 122.4 
L 936 165.6 
" clip-path="url(#p10a416fccb)" style="fill: none; stroke: #000000; stroke-width: 1.5; stroke-linecap: square"/>
   </g>
   <g id="line2d_42">
    <path d="M 914.4 144 
L 957.6 144 
" clip-path="url(#p10a416fccb)" style="fill: none; stroke: #000000; stroke-width: 1.5; stroke-linecap: square"/>
   </g>
   <g id="line2d_43">
    <path d="M 1008 194.4 
L 1008 237.6 
" clip-path="url(#p10a416fccb)" style="fill: none; stroke: #000000; stroke-width: 1.5; stroke-linecap: square"/>
   </g>
   <g id="line2d_44">
    <path d="M 986.4 216 
L 1029.6 216 
" clip-path="url(#p10a416fccb)" style="fill: none; stroke: #000000; stroke-width: 1.5; stroke-linecap: square"/>
   </g>
   <g id="line2d_45">
    <path d="M 1080 266.4 
L 1080 309.6 
" clip-path="url(#p10a416fccb)" style="fill: none; stroke: #000000; stroke-width: 1.5; stroke-linecap: square"/>
   </g>
   <g id="line2d_46">
    <path d="M 1058.4 288 
L 1101.6 288 
" clip-path="url(#p10a416fccb)" style="fill: none; stroke: #000000; stroke-width: 1.5; stroke-linecap: square"/>
   </g>
   <g id="line2d_47">
    <path d="M 1152 338.4 
L 1152 381.6 
" clip-path="url(#p10a416fccb)" style="fill: none; stroke: #000000; stroke-width: 1.5; stroke-linecap: square"/>
   </g>
   <g id="line2d_48">
    <path d="M 1130.4 360 
L 1173.6 360 
" clip-path="url(#p10a416fccb)" style="fill: none; stroke: #000000; stroke-width: 1.5; stroke-linecap: square"/>
   </g>
   <g id="line2d_49">
    <path d="M 1224 50.4 
L 1224 93.6 
" clip-path="url(#p10a416fccb)" style="fill: none; stroke: #000000; stroke-width: 1.5; stroke-linecap: square"/>
   </g>
   <g id="line2d_50">
    <path d="M 1202.4 72 
L 1245.6 72 
" clip-path="url(#p10a416fccb)" style="fill: none; stroke: #000000; stroke-width: 1.5; stroke-linecap: square"/>
   </g>
   <g id="patch_82">
    <path d="M 1283.4 45 
L 1308.6 45 
Q 1323 45 1323 59.4 
L 1323 84.6 
Q 1323 99 1308.6 99 
L 1283.4 99 
Q 1269 99 1269 84.6 
L 1269 59.4 
Q 1269 45 1283.4 45 
z
" clip-path="url(#p10a416fccb)" style="fill: #ffffff; stroke: #000000; stroke-width: 3; stroke-linejoin: miter"/>
   </g>
   <g id="patch_83">
    <path d="M 1283.4 117 
L 1308.6 117 
Q 1323 117 1323 131.4 
L 1323 156.6 
Q 1323 171 1308.6 171 
L 1283.4 171 
Q 1269 171 1269 156.6 
L 1269 131.4 
Q 1269 117 1283.4 117 
z
" clip-path="url(#p10a416fccb)" style="fill: #ffffff; stroke: #000000; stroke-width: 3; stroke-linejoin: miter"/>
   </g>
   <g id="patch_84">
    <path d="M 1283.4 189 
L 1308.6 189 
Q 1323 189 1323 203.4 
L 1323 228.6 
Q 1323 243 1308.6 243 
L 1283.4 243 
Q 1269 243 1269 228.6 
L 1269 203.4 
Q 1269 189 1283.4 189 
z
" clip-path="url(#p10a416fccb)" style="fill: #ffffff; stroke: #000000; stroke-width: 3; stroke-linejoin: miter"/>
   </g>
   <g id="patch_85">
    <path d="M 1283.4 261 
L 1308.6 261 
Q 1323 261 1323 275.4 
L 1323 300.6 
Q 1323 315 1308.6 315 
L 1283.4 315 
Q 1269 315 1269 300.6 
L 1269 275.4 
Q 1269 261 1283.4 261 
z
" clip-path="url(#p10a416fccb)" style="fill: #ffffff; stroke: #000000; stroke-width: 3; stroke-linejoin: miter"/>
   </g>
   <g id="patch_86">
    <path d="M 1283.4 333 
L 1308.6 333 
Q 1323 333 1323 347.4 
L 1323 372.6 
Q 1323 387 1308.6 387 
L 1283.4 387 
Q 1269 387 1269 372.6 
L 1269 347.4 
Q 1269 333 1283.4 333 
z
" clip-path="url(#p10a416fccb)" style="fill: #ffffff; stroke: #000000; stroke-width: 3; stroke-linejoin: miter"/>
   </g>
   <g id="patch_87">
    <path d="M 1355.4 45 
L 1380.6 45 
Q 1395 45 1395 59.4 
L 1395 84.6 
Q 1395 99 1380.6 99 
L 1355.4 99 
Q 1341 99 1341 84.6 
L 1341 59.4 
Q 1341 45 1355.4 45 
z
" clip-path="url(#p10a416fccb)" style="fill: #ffffff; stroke: #000000; stroke-width: 3; stroke-linejoin: miter"/>
   </g>
   <g id="patch_88">
    <path d="M 1355.4 117 
L 1380.6 117 
Q 1395 117 1395 131.4 
L 1395 156.6 
Q 1395 171 1380.6 171 
L 1355.4 171 
Q 1341 171 1341 156.6 
L 1341 131.4 
Q 1341 117 1355.4 117 
z
" clip-path="url(#p10a416fccb)" style="fill: #ffffff; stroke: #000000; stroke-width: 3; stroke-linejoin: miter"/>
   </g>
   <g id="patch_89">
    <path d="M 1355.4 189 
L 1380.6 189 
Q 1395 189 1395 203.4 
L 1395 228.6 
Q 1395 243 1380.6 243 
L 1355.4 243 
Q 1341 243 1341 228.6 
L 1341 203.4 
Q 1341 189 1355.4 189 
z
" clip-path="url(#p10a416fccb)" style="fill: #ffffff; stroke: #000000; stroke-width: 3; stroke-linejoin: miter"/>
   </g>
   <g id="patch_90">
    <path d="M 1355.4 261 
L 1380.6 261 
Q 1395 261 1395 275.4 
L 1395 300.6 
Q 1395 315 1380.6 315 
L 1355.4 315 
Q 1341 315 1341 300.6 
L 1341 275.4 
Q 1341 261 1355.4 261 
z
" clip-path="url(#p10a416fccb)" style="fill: #ffffff; stroke: #000000; stroke-width: 3; stroke-linejoin: miter"/>
   </g>
   <g id="patch_91">
    <path d="M 1355.4 333 
L 1380.6 333 
Q 1395 333 1395 347.4 
L 1395 372.6 
Q 1395 387 1380.6 387 
L 1355.4 387 
Q 1341 387 1341 372.6 
L 1341 347.4 
Q 1341 333 1355.4 333 
z
" clip-path="url(#p10a416fccb)" style="fill: #ffffff; stroke: #000000; stroke-width: 3; stroke-linejoin: miter"/>
   </g>
   <g id="patch_92">
    <path d="M 1427.4 45 
L 1452.6 45 
Q 1467 45 1467 59.4 
L 1467 84.6 
Q 1467 99 1452.6 99 
L 1427.4 99 
Q 1413 99 1413 84.6 
L 1413 59.4 
Q 1413 45 1427.4 45 
z
" clip-path="url(#p10a416fccb)" style="fill: #ffffff; stroke: #000000; stroke-width: 3; stroke-linejoin: miter"/>
   </g>
   <g id="patch_93">
    <path d="M 1427.4 117 
L 1452.6 117 
Q 1467 117 1467 131.4 
L 1467 156.6 
Q 1467 171 1452.6 171 
L 1427.4 171 
Q 1413 171 1413 156.6 
L 1413 131.4 
Q 1413 117 1427.4 117 
z
" clip-path="url(#p10a416fccb)" style="fill: #ffffff; stroke: #000000; stroke-width: 3; stroke-linejoin: miter"/>
   </g>
   <g id="patch_94">
    <path d="M 1427.4 189 
L 1452.6 189 
Q 1467 189 1467 203.4 
L 1467 228.6 
Q 1467 243 1452.6 243 
L 1427.4 243 
Q 1413 243 1413 228.6 
L 1413 203.4 
Q 1413 189 1427.4 189 
z
" clip-path="url(#p10a416fccb)" style="fill: #ffffff; stroke: #000000; stroke-width: 3; stroke-linejoin: miter"/>
   </g>
   <g id="patch_95">
    <path d="M 1427.4 261 
L 1452.6 261 
Q 1467 261 1467 275.4 
L 1467 300.6 
Q 1467 315 1452.6 315 
L 1427.4 315 
Q 1413 315 1413 300.6 
L 1413 275.4 
Q 1413 261 1427.4 261 
z
" clip-path="url(#p10a416fccb)" style="fill: #ffffff; stroke: #000000; stroke-width: 3; stroke-linejoin: miter"/>
   </g>
   <g id="patch_96">
    <path d="M 1427.4 333 
L 1452.6 333 
Q 1467 333 1467 347.4 
L 1467 372.6 
Q 1467 387 1452.6 387 
L 1427.4 387 
Q 1413 387 1413 372.6 
L 1413 347.4 
Q 1413 333 1427.4 333 
z
" clip-path="url(#p10a416fccb)" style="fill: #ffffff; stroke: #000000; stroke-width: 3; stroke-linejoin: miter"/>
   </g>
   <g id="line2d_51">
    <path d="M 1512 122.4 
L 1512 165.6 
" clip-path="url(#p10a416fccb)" style="fill: none; stroke: #000000; stroke-width: 1.5; stroke-linecap: square"/>
   </g>
   <g id="line2d_52">
    <path d="M 1490.4 144 
L 1533.6 144 
" clip-path="url(#p10a416fccb)" style="fill: none; stroke: #000000; stroke-width: 1.5; stroke-linecap: square"/>
   </g>
   <g id="line2d_53">
    <path d="M 1584 194.4 
L 1584 237.6 
" clip-path="url(#p10a416fccb)" style="fill: none; stroke: #000000; stroke-width: 1.5; stroke-linecap: square"/>
   </g>
   <g id="line2d_54">
    <path d="M 1562.4 216 
L 1605.6 216 
" clip-path="url(#p10a416fccb)" style="fill: none; stroke: #000000; stroke-width: 1.5; stroke-linecap: square"/>
   </g>
   <g id="line2d_55">
    <path d="M 1656 266.4 
L 1656 309.6 
" clip-path="url(#p10a416fccb)" style="fill: none; stroke: #000000; stroke-width: 1.5; stroke-linecap: square"/>
   </g>
   <g id="line2d_56">
    <path d="M 1634.4 288 
L 1677.6 288 
" clip-path="url(#p10a416fccb)" style="fill: none; stroke: #000000; stroke-width: 1.5; stroke-linecap: square"/>
   </g>
   <g id="line2d_57">
    <path d="M 1728 338.4 
L 1728 381.6 
" clip-path="url(#p10a416fccb)" style="fill: none; stroke: #000000; stroke-width: 1.5; stroke-linecap: square"/>
   </g>
   <g id="line2d_58">
    <path d="M 1706.4 360 
L 1749.6 360 
" clip-path="url(#p10a416fccb)" style="fill: none; stroke: #000000; stroke-width: 1.5; stroke-linecap: square"/>
   </g>
   <g id="line2d_59">
    <path d="M 1800 50.4 
L 1800 93.6 
" clip-path="url(#p10a416fccb)" style="fill: none; stroke: #000000; stroke-width: 1.5; stroke-linecap: square"/>
   </g>
   <g id="line2d_60">
    <path d="M 1778.4 72 
L 1821.6 72 
" clip-path="url(#p10a416fccb)" style="fill: none; stroke: #000000; stroke-width: 1.5; stroke-linecap: square"/>
   </g>
   <g id="patch_97">
    <path d="M 1859.4 45 
L 1884.6 45 
Q 1899 45 1899 59.4 
L 1899 84.6 
Q 1899 99 1884.6 99 
L 1859.4 99 
Q 1845 99 1845 84.6 
L 1845 59.4 
Q 1845 45 1859.4 45 
z
" clip-path="url(#p10a416fccb)" style="fill: #ffffff; stroke: #000000; stroke-width: 3; stroke-linejoin: miter"/>
   </g>
   <g id="patch_98">
    <path d="M 1859.4 117 
L 1884.6 117 
Q 1899 117 1899 131.4 
L 1899 156.6 
Q 1899 171 1884.6 171 
L 1859.4 171 
Q 1845 171 1845 156.6 
L 1845 131.4 
Q 1845 117 1859.4 117 
z
" clip-path="url(#p10a416fccb)" style="fill: #ffffff; stroke: #000000; stroke-width: 3; stroke-linejoin: miter"/>
   </g>
   <g id="patch_99">
    <path d="M 1859.4 189 
L 1884.6 189 
Q 1899 189 1899 203.4 
L 1899 228.6 
Q 1899 243 1884.6 243 
L 1859.4 243 
Q 1845 243 1845 228.6 
L 1845 203.4 
Q 1845 189 1859.4 189 
z
" clip-path="url(#p10a416fccb)" style="fill: #ffffff; stroke: #000000; stroke-width: 3; stroke-linejoin: miter"/>
   </g>
   <g id="patch_100">
    <path d="M 1859.4 261 
L 1884.6 261 
Q 1899 261 1899 275.4 
L 1899 300.6 
Q 1899 315 1884.6 315 
L 1859.4 315 
Q 1845 315 1845 300.6 
L 1845 275.4 
Q 1845 261 1859.4 261 
z
" clip-path="url(#p10a416fccb)" style="fill: #ffffff; stroke: #000000; stroke-width: 3; stroke-linejoin: miter"/>
   </g>
   <g id="patch_101">
    <path d="M 1859.4 333 
L 1884.6 333 
Q 1899 333 1899 347.4 
L 1899 372.6 
Q 1899 387 1884.6 387 
L 1859.4 387 
Q 1845 387 1845 372.6 
L 1845 347.4 
Q 1845 333 1859.4 333 
z
" clip-path="url(#p10a416fccb)" style="fill: #ffffff; stroke: #000000; stroke-width: 3; stroke-linejoin: miter"/>
   </g>
   <g id="patch_102">
    <path d="M 1931.4 45 
L 1956.6 45 
Q 1971 45 1971 59.4 
L 1971 84.6 
Q 1971 99 1956.6 99 
L 1931.4 99 
Q 1917 99 1917 84.6 
L 1917 59.4 
Q 1917 45 1931.4 45 
z
" clip-path="url(#p10a416fccb)" style="fill: #ffffff; stroke: #000000; stroke-width: 3; stroke-linejoin: miter"/>
   </g>
   <g id="patch_103">
    <path d="M 1931.4 117 
L 1956.6 117 
Q 1971 117 1971 131.4 
L 1971 156.6 
Q 1971 171 1956.6 171 
L 1931.4 171 
Q 1917 171 1917 156.6 
L 1917 131.4 
Q 1917 117 1931.4 117 
z
" clip-path="url(#p10a416fccb)" style="fill: #ffffff; stroke: #000000; stroke-width: 3; stroke-linejoin: miter"/>
   </g>
   <g id="patch_104">
    <path d="M 1931.4 189 
L 1956.6 189 
Q 1971 189 1971 203.4 
L 1971 228.6 
Q 1971 243 1956.6 243 
L 1931.4 243 
Q 1917 243 1917 228.6 
L 1917 203.4 
Q 1917 189 1931.4 189 
z
" clip-path="url(#p10a416fccb)" style="fill: #ffffff; stroke: #000000; stroke-width: 3; stroke-linejoin: miter"/>
   </g>
   <g id="patch_105">
    <path d="M 1931.4 261 
L 1956.6 261 
Q 1971 261 1971 275.4 
L 1971 300.6 
Q 1971 315 1956.6 315 
L 1931.4 315 
Q 1917 315 1917 300.6 
L 1917 275.4 
Q 1917 261 1931.4 261 
z
" clip-path="url(#p10a416fccb)" style="fill: #ffffff; stroke: #000000; stroke-width: 3; stroke-linejoin: miter"/>
   </g>
   <g id="patch_106">
    <path d="M 1931.4 333 
L 1956.6 333 
Q 1971 333 1971 347.4 
L 1971 372.6 
Q 1971 387 1956.6 387 
L 1931.4 387 
Q 1917 387 1917 372.6 
L 1917 347.4 
Q 1917 333 1931.4 333 
z
" clip-path="url(#p10a416fccb)" style="fill: #ffffff; stroke: #000000; stroke-width: 3; stroke-linejoin: miter"/>
   </g>
   <g id="patch_107">
    <path d="M 2003.4 45 
L 2028.6 45 
Q 2043 45 2043 59.4 
L 2043 84.6 
Q 2043 99 2028.6 99 
L 2003.4 99 
Q 1989 99 1989 84.6 
L 1989 59.4 
Q 1989 45 2003.4 45 
z
" clip-path="url(#p10a416fccb)" style="fill: #ffffff; stroke: #000000; stroke-width: 3; stroke-linejoin: miter"/>
   </g>
   <g id="patch_108">
    <path d="M 2003.4 117 
L 2028.6 117 
Q 2043 117 2043 131.4 
L 2043 156.6 
Q 2043 171 2028.6 171 
L 2003.4 171 
Q 1989 171 1989 156.6 
L 1989 131.4 
Q 1989 117 2003.4 117 
z
" clip-path="url(#p10a416fccb)" style="fill: #ffffff; stroke: #000000; stroke-width: 3; stroke-linejoin: miter"/>
   </g>
   <g id="patch_109">
    <path d="M 2003.4 189 
L 2028.6 189 
Q 2043 189 2043 203.4 
L 2043 228.6 
Q 2043 243 2028.6 243 
L 2003.4 243 
Q 1989 243 1989 228.6 
L 1989 203.4 
Q 1989 189 2003.4 189 
z
" clip-path="url(#p10a416fccb)" style="fill: #ffffff; stroke: #000000; stroke-width: 3; stroke-linejoin: miter"/>
   </g>
   <g id="patch_110">
    <path d="M 2003.4 261 
L 2028.6 261 
Q 2043 261 2043 275.4 
L 2043 300.6 
Q 2043 315 2028.6 315 
L 2003.4 315 
Q 1989 315 1989 300.6 
L 1989 275.4 
Q 1989 261 2003.4 261 
z
" clip-path="url(#p10a416fccb)" style="fill: #ffffff; stroke: #000000; stroke-width: 3; stroke-linejoin: miter"/>
   </g>
   <g id="patch_111">
    <path d="M 2003.4 333 
L 2028.6 333 
Q 2043 333 2043 347.4 
L 2043 372.6 
Q 2043 387 2028.6 387 
L 2003.4 387 
Q 1989 387 1989 372.6 
L 1989 347.4 
Q 1989 333 2003.4 333 
z
" clip-path="url(#p10a416fccb)" style="fill: #ffffff; stroke: #000000; stroke-width: 3; stroke-linejoin: miter"/>
   </g>
   <g id="line2d_61">
    <path d="M 2088 122.4 
L 2088 165.6 
" clip-path="url(#p10a416fccb)" style="fill: none; stroke: #000000; stroke-width: 1.5; stroke-linecap: square"/>
   </g>
   <g id="line2d_62">
    <path d="M 2066.4 144 
L 2109.6 144 
" clip-path="url(#p10a416fccb)" style="fill: none; stroke: #000000; stroke-width: 1.5; stroke-linecap: square"/>
   </g>
   <g id="line2d_63">
    <path d="M 2160 194.4 
L 2160 237.6 
" clip-path="url(#p10a416fccb)" style="fill: none; stroke: #000000; stroke-width: 1.5; stroke-linecap: square"/>
   </g>
   <g id="line2d_64">
    <path d="M 2138.4 216 
L 2181.6 216 
" clip-path="url(#p10a416fccb)" style="fill: none; stroke: #000000; stroke-width: 1.5; stroke-linecap: square"/>
   </g>
   <g id="line2d_65">
    <path d="M 2232 266.4 
L 2232 309.6 
" clip-path="url(#p10a416fccb)" style="fill: none; stroke: #000000; stroke-width: 1.5; stroke-linecap: square"/>
   </g>
   <g id="line2d_66">
    <path d="M 2210.4 288 
L 2253.6 288 
" clip-path="url(#p10a416fccb)" style="fill: none; stroke: #000000; stroke-width: 1.5; stroke-linecap: square"/>
   </g>
   <g id="line2d_67">
    <path d="M 2304 338.4 
L 2304 381.6 
" clip-path="url(#p10a416fccb)" style="fill: none; stroke: #000000; stroke-width: 1.5; stroke-linecap: square"/>
   </g>
   <g id="line2d_68">
    <path d="M 2282.4 360 
L 2325.6 360 
" clip-path="url(#p10a416fccb)" style="fill: none; stroke: #000000; stroke-width: 1.5; stroke-linecap: square"/>
   </g>
   <g id="line2d_69">
    <path d="M 2376 50.4 
L 2376 93.6 
" clip-path="url(#p10a416fccb)" style="fill: none; stroke: #000000; stroke-width: 1.5; stroke-linecap: square"/>
   </g>
   <g id="line2d_70">
    <path d="M 2354.4 72 
L 2397.6 72 
" clip-path="url(#p10a416fccb)" style="fill: none; stroke: #000000; stroke-width: 1.5; stroke-linecap: square"/>
   </g>
   <g id="patch_112">
    <path d="M 2435.4 45 
L 2460.6 45 
Q 2475 45 2475 59.4 
L 2475 84.6 
Q 2475 99 2460.6 99 
L 2435.4 99 
Q 2421 99 2421 84.6 
L 2421 59.4 
Q 2421 45 2435.4 45 
z
" clip-path="url(#p10a416fccb)" style="fill: #ffffff; stroke: #000000; stroke-width: 3; stroke-linejoin: miter"/>
   </g>
   <g id="patch_113">
    <path d="M 2435.4 117 
L 2460.6 117 
Q 2475 117 2475 131.4 
L 2475 156.6 
Q 2475 171 2460.6 171 
L 2435.4 171 
Q 2421 171 2421 156.6 
L 2421 131.4 
Q 2421 117 2435.4 117 
z
" clip-path="url(#p10a416fccb)" style="fill: #ffffff; stroke: #000000; stroke-width: 3; stroke-linejoin: miter"/>
   </g>
   <g id="patch_114">
    <path d="M 2435.4 189 
L 2460.6 189 
Q 2475 189 2475 203.4 
L 2475 228.6 
Q 2475 243 2460.6 243 
L 2435.4 243 
Q 2421 243 2421 228.6 
L 2421 203.4 
Q 2421 189 2435.4 189 
z
" clip-path="url(#p10a416fccb)" style="fill: #ffffff; stroke: #000000; stroke-width: 3; stroke-linejoin: miter"/>
   </g>
   <g id="patch_115">
    <path d="M 2435.4 261 
L 2460.6 261 
Q 2475 261 2475 275.4 
L 2475 300.6 
Q 2475 315 2460.6 315 
L 2435.4 315 
Q 2421 315 2421 300.6 
L 2421 275.4 
Q 2421 261 2435.4 261 
z
" clip-path="url(#p10a416fccb)" style="fill: #ffffff; stroke: #000000; stroke-width: 3; stroke-linejoin: miter"/>
   </g>
   <g id="patch_116">
    <path d="M 2435.4 333 
L 2460.6 333 
Q 2475 333 2475 347.4 
L 2475 372.6 
Q 2475 387 2460.6 387 
L 2435.4 387 
Q 2421 387 2421 372.6 
L 2421 347.4 
Q 2421 333 2435.4 333 
z
" clip-path="url(#p10a416fccb)" style="fill: #ffffff; stroke: #000000; stroke-width: 3; stroke-linejoin: miter"/>
   </g>
   <g id="patch_117">
    <path d="M 2507.4 45 
L 2532.6 45 
Q 2547 45 2547 59.4 
L 2547 84.6 
Q 2547 99 2532.6 99 
L 2507.4 99 
Q 2493 99 2493 84.6 
L 2493 59.4 
Q 2493 45 2507.4 45 
z
" clip-path="url(#p10a416fccb)" style="fill: #ffffff; stroke: #000000; stroke-width: 3; stroke-linejoin: miter"/>
   </g>
   <g id="patch_118">
    <path d="M 2507.4 117 
L 2532.6 117 
Q 2547 117 2547 131.4 
L 2547 156.6 
Q 2547 171 2532.6 171 
L 2507.4 171 
Q 2493 171 2493 156.6 
L 2493 131.4 
Q 2493 117 2507.4 117 
z
" clip-path="url(#p10a416fccb)" style="fill: #ffffff; stroke: #000000; stroke-width: 3; stroke-linejoin: miter"/>
   </g>
   <g id="patch_119">
    <path d="M 2507.4 189 
L 2532.6 189 
Q 2547 189 2547 203.4 
L 2547 228.6 
Q 2547 243 2532.6 243 
L 2507.4 243 
Q 2493 243 2493 228.6 
L 2493 203.4 
Q 2493 189 2507.4 189 
z
" clip-path="url(#p10a416fccb)" style="fill: #ffffff; stroke: #000000; stroke-width: 3; stroke-linejoin: miter"/>
   </g>
   <g id="patch_120">
    <path d="M 2507.4 261 
L 2532.6 261 
Q 2547 261 2547 275.4 
L 2547 300.6 
Q 2547 315 2532.6 315 
L 2507.4 315 
Q 2493 315 2493 300.6 
L 2493 275.4 
Q 2493 261 2507.4 261 
z
" clip-path="url(#p10a416fccb)" style="fill: #ffffff; stroke: #000000; stroke-width: 3; stroke-linejoin: miter"/>
   </g>
   <g id="patch_121">
    <path d="M 2507.4 333 
L 2532.6 333 
Q 2547 333 2547 347.4 
L 2547 372.6 
Q 2547 387 2532.6 387 
L 2507.4 387 
Q 2493 387 2493 372.6 
L 2493 347.4 
Q 2493 333 2507.4 333 
z
" clip-path="url(#p10a416fccb)" style="fill: #ffffff; stroke: #000000; stroke-width: 3; stroke-linejoin: miter"/>
   </g>
   <g id="patch_122">
    <path d="M 2579.4 45 
L 2604.6 45 
Q 2619 45 2619 59.4 
L 2619 84.6 
Q 2619 99 2604.6 99 
L 2579.4 99 
Q 2565 99 2565 84.6 
L 2565 59.4 
Q 2565 45 2579.4 45 
z
" clip-path="url(#p10a416fccb)" style="fill: #ffffff; stroke: #000000; stroke-width: 3; stroke-linejoin: miter"/>
   </g>
   <g id="patch_123">
    <path d="M 2579.4 117 
L 2604.6 117 
Q 2619 117 2619 131.4 
L 2619 156.6 
Q 2619 171 2604.6 171 
L 2579.4 171 
Q 2565 171 2565 156.6 
L 2565 131.4 
Q 2565 117 2579.4 117 
z
" clip-path="url(#p10a416fccb)" style="fill: #ffffff; stroke: #000000; stroke-width: 3; stroke-linejoin: miter"/>
   </g>
   <g id="patch_124">
    <path d="M 2579.4 189 
L 2604.6 189 
Q 2619 189 2619 203.4 
L 2619 228.6 
Q 2619 243 2604.6 243 
L 2579.4 243 
Q 2565 243 2565 228.6 
L 2565 203.4 
Q 2565 189 2579.4 189 
z
" clip-path="url(#p10a416fccb)" style="fill: #ffffff; stroke: #000000; stroke-width: 3; stroke-linejoin: miter"/>
   </g>
   <g id="patch_125">
    <path d="M 2579.4 261 
L 2604.6 261 
Q 2619 261 2619 275.4 
L 2619 300.6 
Q 2619 315 2604.6 315 
L 2579.4 315 
Q 2565 315 2565 300.6 
L 2565 275.4 
Q 2565 261 2579.4 261 
z
" clip-path="url(#p10a416fccb)" style="fill: #ffffff; stroke: #000000; stroke-width: 3; stroke-linejoin: miter"/>
   </g>
   <g id="patch_126">
    <path d="M 2579.4 333 
L 2604.6 333 
Q 2619 333 2619 347.4 
L 2619 372.6 
Q 2619 387 2604.6 387 
L 2579.4 387 
Q 2565 387 2565 372.6 
L 2565 347.4 
Q 2565 333 2579.4 333 
z
" clip-path="url(#p10a416fccb)" style="fill: #ffffff; stroke: #000000; stroke-width: 3; stroke-linejoin: miter"/>
   </g>
   <g id="line2d_71">
    <path d="M 2664 122.4 
L 2664 165.6 
" clip-path="url(#p10a416fccb)" style="fill: none; stroke: #000000; stroke-width: 1.5; stroke-linecap: square"/>
   </g>
   <g id="line2d_72">
    <path d="M 2642.4 144 
L 2685.6 144 
" clip-path="url(#p10a416fccb)" style="fill: none; stroke: #000000; stroke-width: 1.5; stroke-linecap: square"/>
   </g>
   <g id="line2d_73">
    <path d="M 2736 194.4 
L 2736 237.6 
" clip-path="url(#p10a416fccb)" style="fill: none; stroke: #000000; stroke-width: 1.5; stroke-linecap: square"/>
   </g>
   <g id="line2d_74">
    <path d="M 2714.4 216 
L 2757.6 216 
" clip-path="url(#p10a416fccb)" style="fill: none; stroke: #000000; stroke-width: 1.5; stroke-linecap: square"/>
   </g>
   <g id="line2d_75">
    <path d="M 2808 266.4 
L 2808 309.6 
" clip-path="url(#p10a416fccb)" style="fill: none; stroke: #000000; stroke-width: 1.5; stroke-linecap: square"/>
   </g>
   <g id="line2d_76">
    <path d="M 2786.4 288 
L 2829.6 288 
" clip-path="url(#p10a416fccb)" style="fill: none; stroke: #000000; stroke-width: 1.5; stroke-linecap: square"/>
   </g>
   <g id="line2d_77">
    <path d="M 2880 338.4 
L 2880 381.6 
" clip-path="url(#p10a416fccb)" style="fill: none; stroke: #000000; stroke-width: 1.5; stroke-linecap: square"/>
   </g>
   <g id="line2d_78">
    <path d="M 2858.4 360 
L 2901.6 360 
" clip-path="url(#p10a416fccb)" style="fill: none; stroke: #000000; stroke-width: 1.5; stroke-linecap: square"/>
   </g>
   <g id="line2d_79">
    <path d="M 2952 50.4 
L 2952 93.6 
" clip-path="url(#p10a416fccb)" style="fill: none; stroke: #000000; stroke-width: 1.5; stroke-linecap: square"/>
   </g>
   <g id="line2d_80">
    <path d="M 2930.4 72 
L 2973.6 72 
" clip-path="url(#p10a416fccb)" style="fill: none; stroke: #000000; stroke-width: 1.5; stroke-linecap: square"/>
   </g>
   <g id="text_6">
    <!-- RX -->
    <g transform="translate(134.341094 75.863125) scale(0.14 -0.14)">
     <defs>
      <path id="DejaVuSans-52" d="M 2841 2188 
Q 3044 2119 3236 1894 
Q 3428 1669 3622 1275 
L 4263 0 
L 3584 0 
L 2988 1197 
Q 2756 1666 2539 1819 
Q 2322 1972 1947 1972 
L 1259 1972 
L 1259 0 
L 628 0 
L 628 4666 
L 2053 4666 
Q 2853 4666 3247 4331 
Q 3641 3997 3641 3322 
Q 3641 2881 3436 2590 
Q 3231 2300 2841 2188 
z
M 1259 4147 
L 1259 2491 
L 2053 2491 
Q 2509 2491 2742 2702 
Q 2975 2913 2975 3322 
Q 2975 3731 2742 3939 
Q 2509 4147 2053 4147 
L 1259 4147 
z
" transform="scale(0.015625)"/>
      <path id="DejaVuSans-58" d="M 403 4666 
L 1081 4666 
L 2241 2931 
L 3406 4666 
L 4084 4666 
L 2584 2425 
L 4184 0 
L 3506 0 
L 2194 1984 
L 872 0 
L 191 0 
L 1856 2491 
L 403 4666 
z
" transform="scale(0.015625)"/>
     </defs>
     <use xlink:href="#DejaVuSans-52"/>
     <use xlink:href="#DejaVuSans-58" x="69.482422"/>
    </g>
   </g>
   <g id="text_7">
    <!-- RX -->
    <g transform="translate(134.341094 147.863125) scale(0.14 -0.14)">
     <use xlink:href="#DejaVuSans-52"/>
     <use xlink:href="#DejaVuSans-58" x="69.482422"/>
    </g>
   </g>
   <g id="text_8">
    <!-- RX -->
    <g transform="translate(134.341094 219.863125) scale(0.14 -0.14)">
     <use xlink:href="#DejaVuSans-52"/>
     <use xlink:href="#DejaVuSans-58" x="69.482422"/>
    </g>
   </g>
   <g id="text_9">
    <!-- RX -->
    <g transform="translate(134.341094 291.863125) scale(0.14 -0.14)">
     <use xlink:href="#DejaVuSans-52"/>
     <use xlink:href="#DejaVuSans-58" x="69.482422"/>
    </g>
   </g>
   <g id="text_10">
    <!-- RX -->
    <g transform="translate(134.341094 363.863125) scale(0.14 -0.14)">
     <use xlink:href="#DejaVuSans-52"/>
     <use xlink:href="#DejaVuSans-58" x="69.482422"/>
    </g>
   </g>
   <g id="text_11">
    <!-- RZ -->
    <g transform="translate(206.341094 75.863125) scale(0.14 -0.14)">
     <defs>
      <path id="DejaVuSans-5a" d="M 359 4666 
L 4025 4666 
L 4025 4184 
L 1075 531 
L 4097 531 
L 4097 0 
L 288 0 
L 288 481 
L 3238 4134 
L 359 4134 
L 359 4666 
z
" transform="scale(0.015625)"/>
     </defs>
     <use xlink:href="#DejaVuSans-52"/>
     <use xlink:href="#DejaVuSans-5a" x="69.482422"/>
    </g>
   </g>
   <g id="text_12">
    <!-- RZ -->
    <g transform="translate(206.341094 147.863125) scale(0.14 -0.14)">
     <use xlink:href="#DejaVuSans-52"/>
     <use xlink:href="#DejaVuSans-5a" x="69.482422"/>
    </g>
   </g>
   <g id="text_13">
    <!-- RZ -->
    <g transform="translate(206.341094 219.863125) scale(0.14 -0.14)">
     <use xlink:href="#DejaVuSans-52"/>
     <use xlink:href="#DejaVuSans-5a" x="69.482422"/>
    </g>
   </g>
   <g id="text_14">
    <!-- RZ -->
    <g transform="translate(206.341094 291.863125) scale(0.14 -0.14)">
     <use xlink:href="#DejaVuSans-52"/>
     <use xlink:href="#DejaVuSans-5a" x="69.482422"/>
    </g>
   </g>
   <g id="text_15">
    <!-- RZ -->
    <g transform="translate(206.341094 363.863125) scale(0.14 -0.14)">
     <use xlink:href="#DejaVuSans-52"/>
     <use xlink:href="#DejaVuSans-5a" x="69.482422"/>
    </g>
   </g>
   <g id="text_16">
    <!-- RX -->
    <g transform="translate(278.341094 75.863125) scale(0.14 -0.14)">
     <use xlink:href="#DejaVuSans-52"/>
     <use xlink:href="#DejaVuSans-58" x="69.482422"/>
    </g>
   </g>
   <g id="text_17">
    <!-- RX -->
    <g transform="translate(278.341094 147.863125) scale(0.14 -0.14)">
     <use xlink:href="#DejaVuSans-52"/>
     <use xlink:href="#DejaVuSans-58" x="69.482422"/>
    </g>
   </g>
   <g id="text_18">
    <!-- RX -->
    <g transform="translate(278.341094 219.863125) scale(0.14 -0.14)">
     <use xlink:href="#DejaVuSans-52"/>
     <use xlink:href="#DejaVuSans-58" x="69.482422"/>
    </g>
   </g>
   <g id="text_19">
    <!-- RX -->
    <g transform="translate(278.341094 291.863125) scale(0.14 -0.14)">
     <use xlink:href="#DejaVuSans-52"/>
     <use xlink:href="#DejaVuSans-58" x="69.482422"/>
    </g>
   </g>
   <g id="text_20">
    <!-- RX -->
    <g transform="translate(278.341094 363.863125) scale(0.14 -0.14)">
     <use xlink:href="#DejaVuSans-52"/>
     <use xlink:href="#DejaVuSans-58" x="69.482422"/>
    </g>
   </g>
   <g id="text_21">
    <!-- RX -->
    <g transform="translate(710.341094 75.863125) scale(0.14 -0.14)">
     <use xlink:href="#DejaVuSans-52"/>
     <use xlink:href="#DejaVuSans-58" x="69.482422"/>
    </g>
   </g>
   <g id="text_22">
    <!-- RX -->
    <g transform="translate(710.341094 147.863125) scale(0.14 -0.14)">
     <use xlink:href="#DejaVuSans-52"/>
     <use xlink:href="#DejaVuSans-58" x="69.482422"/>
    </g>
   </g>
   <g id="text_23">
    <!-- RX -->
    <g transform="translate(710.341094 219.863125) scale(0.14 -0.14)">
     <use xlink:href="#DejaVuSans-52"/>
     <use xlink:href="#DejaVuSans-58" x="69.482422"/>
    </g>
   </g>
   <g id="text_24">
    <!-- RX -->
    <g transform="translate(710.341094 291.863125) scale(0.14 -0.14)">
     <use xlink:href="#DejaVuSans-52"/>
     <use xlink:href="#DejaVuSans-58" x="69.482422"/>
    </g>
   </g>
   <g id="text_25">
    <!-- RX -->
    <g transform="translate(710.341094 363.863125) scale(0.14 -0.14)">
     <use xlink:href="#DejaVuSans-52"/>
     <use xlink:href="#DejaVuSans-58" x="69.482422"/>
    </g>
   </g>
   <g id="text_26">
    <!-- RZ -->
    <g transform="translate(782.341094 75.863125) scale(0.14 -0.14)">
     <use xlink:href="#DejaVuSans-52"/>
     <use xlink:href="#DejaVuSans-5a" x="69.482422"/>
    </g>
   </g>
   <g id="text_27">
    <!-- RZ -->
    <g transform="translate(782.341094 147.863125) scale(0.14 -0.14)">
     <use xlink:href="#DejaVuSans-52"/>
     <use xlink:href="#DejaVuSans-5a" x="69.482422"/>
    </g>
   </g>
   <g id="text_28">
    <!-- RZ -->
    <g transform="translate(782.341094 219.863125) scale(0.14 -0.14)">
     <use xlink:href="#DejaVuSans-52"/>
     <use xlink:href="#DejaVuSans-5a" x="69.482422"/>
    </g>
   </g>
   <g id="text_29">
    <!-- RZ -->
    <g transform="translate(782.341094 291.863125) scale(0.14 -0.14)">
     <use xlink:href="#DejaVuSans-52"/>
     <use xlink:href="#DejaVuSans-5a" x="69.482422"/>
    </g>
   </g>
   <g id="text_30">
    <!-- RZ -->
    <g transform="translate(782.341094 363.863125) scale(0.14 -0.14)">
     <use xlink:href="#DejaVuSans-52"/>
     <use xlink:href="#DejaVuSans-5a" x="69.482422"/>
    </g>
   </g>
   <g id="text_31">
    <!-- RX -->
    <g transform="translate(854.341094 75.863125) scale(0.14 -0.14)">
     <use xlink:href="#DejaVuSans-52"/>
     <use xlink:href="#DejaVuSans-58" x="69.482422"/>
    </g>
   </g>
   <g id="text_32">
    <!-- RX -->
    <g transform="translate(854.341094 147.863125) scale(0.14 -0.14)">
     <use xlink:href="#DejaVuSans-52"/>
     <use xlink:href="#DejaVuSans-58" x="69.482422"/>
    </g>
   </g>
   <g id="text_33">
    <!-- RX -->
    <g transform="translate(854.341094 219.863125) scale(0.14 -0.14)">
     <use xlink:href="#DejaVuSans-52"/>
     <use xlink:href="#DejaVuSans-58" x="69.482422"/>
    </g>
   </g>
   <g id="text_34">
    <!-- RX -->
    <g transform="translate(854.341094 291.863125) scale(0.14 -0.14)">
     <use xlink:href="#DejaVuSans-52"/>
     <use xlink:href="#DejaVuSans-58" x="69.482422"/>
    </g>
   </g>
   <g id="text_35">
    <!-- RX -->
    <g transform="translate(854.341094 363.863125) scale(0.14 -0.14)">
     <use xlink:href="#DejaVuSans-52"/>
     <use xlink:href="#DejaVuSans-58" x="69.482422"/>
    </g>
   </g>
   <g id="text_36">
    <!-- RX -->
    <g transform="translate(1286.341094 75.863125) scale(0.14 -0.14)">
     <use xlink:href="#DejaVuSans-52"/>
     <use xlink:href="#DejaVuSans-58" x="69.482422"/>
    </g>
   </g>
   <g id="text_37">
    <!-- RX -->
    <g transform="translate(1286.341094 147.863125) scale(0.14 -0.14)">
     <use xlink:href="#DejaVuSans-52"/>
     <use xlink:href="#DejaVuSans-58" x="69.482422"/>
    </g>
   </g>
   <g id="text_38">
    <!-- RX -->
    <g transform="translate(1286.341094 219.863125) scale(0.14 -0.14)">
     <use xlink:href="#DejaVuSans-52"/>
     <use xlink:href="#DejaVuSans-58" x="69.482422"/>
    </g>
   </g>
   <g id="text_39">
    <!-- RX -->
    <g transform="translate(1286.341094 291.863125) scale(0.14 -0.14)">
     <use xlink:href="#DejaVuSans-52"/>
     <use xlink:href="#DejaVuSans-58" x="69.482422"/>
    </g>
   </g>
   <g id="text_40">
    <!-- RX -->
    <g transform="translate(1286.341094 363.863125) scale(0.14 -0.14)">
     <use xlink:href="#DejaVuSans-52"/>
     <use xlink:href="#DejaVuSans-58" x="69.482422"/>
    </g>
   </g>
   <g id="text_41">
    <!-- RZ -->
    <g transform="translate(1358.341094 75.863125) scale(0.14 -0.14)">
     <use xlink:href="#DejaVuSans-52"/>
     <use xlink:href="#DejaVuSans-5a" x="69.482422"/>
    </g>
   </g>
   <g id="text_42">
    <!-- RZ -->
    <g transform="translate(1358.341094 147.863125) scale(0.14 -0.14)">
     <use xlink:href="#DejaVuSans-52"/>
     <use xlink:href="#DejaVuSans-5a" x="69.482422"/>
    </g>
   </g>
   <g id="text_43">
    <!-- RZ -->
    <g transform="translate(1358.341094 219.863125) scale(0.14 -0.14)">
     <use xlink:href="#DejaVuSans-52"/>
     <use xlink:href="#DejaVuSans-5a" x="69.482422"/>
    </g>
   </g>
   <g id="text_44">
    <!-- RZ -->
    <g transform="translate(1358.341094 291.863125) scale(0.14 -0.14)">
     <use xlink:href="#DejaVuSans-52"/>
     <use xlink:href="#DejaVuSans-5a" x="69.482422"/>
    </g>
   </g>
   <g id="text_45">
    <!-- RZ -->
    <g transform="translate(1358.341094 363.863125) scale(0.14 -0.14)">
     <use xlink:href="#DejaVuSans-52"/>
     <use xlink:href="#DejaVuSans-5a" x="69.482422"/>
    </g>
   </g>
   <g id="text_46">
    <!-- RX -->
    <g transform="translate(1430.341094 75.863125) scale(0.14 -0.14)">
     <use xlink:href="#DejaVuSans-52"/>
     <use xlink:href="#DejaVuSans-58" x="69.482422"/>
    </g>
   </g>
   <g id="text_47">
    <!-- RX -->
    <g transform="translate(1430.341094 147.863125) scale(0.14 -0.14)">
     <use xlink:href="#DejaVuSans-52"/>
     <use xlink:href="#DejaVuSans-58" x="69.482422"/>
    </g>
   </g>
   <g id="text_48">
    <!-- RX -->
    <g transform="translate(1430.341094 219.863125) scale(0.14 -0.14)">
     <use xlink:href="#DejaVuSans-52"/>
     <use xlink:href="#DejaVuSans-58" x="69.482422"/>
    </g>
   </g>
   <g id="text_49">
    <!-- RX -->
    <g transform="translate(1430.341094 291.863125) scale(0.14 -0.14)">
     <use xlink:href="#DejaVuSans-52"/>
     <use xlink:href="#DejaVuSans-58" x="69.482422"/>
    </g>
   </g>
   <g id="text_50">
    <!-- RX -->
    <g transform="translate(1430.341094 363.863125) scale(0.14 -0.14)">
     <use xlink:href="#DejaVuSans-52"/>
     <use xlink:href="#DejaVuSans-58" x="69.482422"/>
    </g>
   </g>
   <g id="text_51">
    <!-- RX -->
    <g transform="translate(1862.341094 75.863125) scale(0.14 -0.14)">
     <use xlink:href="#DejaVuSans-52"/>
     <use xlink:href="#DejaVuSans-58" x="69.482422"/>
    </g>
   </g>
   <g id="text_52">
    <!-- RX -->
    <g transform="translate(1862.341094 147.863125) scale(0.14 -0.14)">
     <use xlink:href="#DejaVuSans-52"/>
     <use xlink:href="#DejaVuSans-58" x="69.482422"/>
    </g>
   </g>
   <g id="text_53">
    <!-- RX -->
    <g transform="translate(1862.341094 219.863125) scale(0.14 -0.14)">
     <use xlink:href="#DejaVuSans-52"/>
     <use xlink:href="#DejaVuSans-58" x="69.482422"/>
    </g>
   </g>
   <g id="text_54">
    <!-- RX -->
    <g transform="translate(1862.341094 291.863125) scale(0.14 -0.14)">
     <use xlink:href="#DejaVuSans-52"/>
     <use xlink:href="#DejaVuSans-58" x="69.482422"/>
    </g>
   </g>
   <g id="text_55">
    <!-- RX -->
    <g transform="translate(1862.341094 363.863125) scale(0.14 -0.14)">
     <use xlink:href="#DejaVuSans-52"/>
     <use xlink:href="#DejaVuSans-58" x="69.482422"/>
    </g>
   </g>
   <g id="text_56">
    <!-- RZ -->
    <g transform="translate(1934.341094 75.863125) scale(0.14 -0.14)">
     <use xlink:href="#DejaVuSans-52"/>
     <use xlink:href="#DejaVuSans-5a" x="69.482422"/>
    </g>
   </g>
   <g id="text_57">
    <!-- RZ -->
    <g transform="translate(1934.341094 147.863125) scale(0.14 -0.14)">
     <use xlink:href="#DejaVuSans-52"/>
     <use xlink:href="#DejaVuSans-5a" x="69.482422"/>
    </g>
   </g>
   <g id="text_58">
    <!-- RZ -->
    <g transform="translate(1934.341094 219.863125) scale(0.14 -0.14)">
     <use xlink:href="#DejaVuSans-52"/>
     <use xlink:href="#DejaVuSans-5a" x="69.482422"/>
    </g>
   </g>
   <g id="text_59">
    <!-- RZ -->
    <g transform="translate(1934.341094 291.863125) scale(0.14 -0.14)">
     <use xlink:href="#DejaVuSans-52"/>
     <use xlink:href="#DejaVuSans-5a" x="69.482422"/>
    </g>
   </g>
   <g id="text_60">
    <!-- RZ -->
    <g transform="translate(1934.341094 363.863125) scale(0.14 -0.14)">
     <use xlink:href="#DejaVuSans-52"/>
     <use xlink:href="#DejaVuSans-5a" x="69.482422"/>
    </g>
   </g>
   <g id="text_61">
    <!-- RX -->
    <g transform="translate(2006.341094 75.863125) scale(0.14 -0.14)">
     <use xlink:href="#DejaVuSans-52"/>
     <use xlink:href="#DejaVuSans-58" x="69.482422"/>
    </g>
   </g>
   <g id="text_62">
    <!-- RX -->
    <g transform="translate(2006.341094 147.863125) scale(0.14 -0.14)">
     <use xlink:href="#DejaVuSans-52"/>
     <use xlink:href="#DejaVuSans-58" x="69.482422"/>
    </g>
   </g>
   <g id="text_63">
    <!-- RX -->
    <g transform="translate(2006.341094 219.863125) scale(0.14 -0.14)">
     <use xlink:href="#DejaVuSans-52"/>
     <use xlink:href="#DejaVuSans-58" x="69.482422"/>
    </g>
   </g>
   <g id="text_64">
    <!-- RX -->
    <g transform="translate(2006.341094 291.863125) scale(0.14 -0.14)">
     <use xlink:href="#DejaVuSans-52"/>
     <use xlink:href="#DejaVuSans-58" x="69.482422"/>
    </g>
   </g>
   <g id="text_65">
    <!-- RX -->
    <g transform="translate(2006.341094 363.863125) scale(0.14 -0.14)">
     <use xlink:href="#DejaVuSans-52"/>
     <use xlink:href="#DejaVuSans-58" x="69.482422"/>
    </g>
   </g>
   <g id="text_66">
    <!-- RX -->
    <g transform="translate(2438.341094 75.863125) scale(0.14 -0.14)">
     <use xlink:href="#DejaVuSans-52"/>
     <use xlink:href="#DejaVuSans-58" x="69.482422"/>
    </g>
   </g>
   <g id="text_67">
    <!-- RX -->
    <g transform="translate(2438.341094 147.863125) scale(0.14 -0.14)">
     <use xlink:href="#DejaVuSans-52"/>
     <use xlink:href="#DejaVuSans-58" x="69.482422"/>
    </g>
   </g>
   <g id="text_68">
    <!-- RX -->
    <g transform="translate(2438.341094 219.863125) scale(0.14 -0.14)">
     <use xlink:href="#DejaVuSans-52"/>
     <use xlink:href="#DejaVuSans-58" x="69.482422"/>
    </g>
   </g>
   <g id="text_69">
    <!-- RX -->
    <g transform="translate(2438.341094 291.863125) scale(0.14 -0.14)">
     <use xlink:href="#DejaVuSans-52"/>
     <use xlink:href="#DejaVuSans-58" x="69.482422"/>
    </g>
   </g>
   <g id="text_70">
    <!-- RX -->
    <g transform="translate(2438.341094 363.863125) scale(0.14 -0.14)">
     <use xlink:href="#DejaVuSans-52"/>
     <use xlink:href="#DejaVuSans-58" x="69.482422"/>
    </g>
   </g>
   <g id="text_71">
    <!-- RZ -->
    <g transform="translate(2510.341094 75.863125) scale(0.14 -0.14)">
     <use xlink:href="#DejaVuSans-52"/>
     <use xlink:href="#DejaVuSans-5a" x="69.482422"/>
    </g>
   </g>
   <g id="text_72">
    <!-- RZ -->
    <g transform="translate(2510.341094 147.863125) scale(0.14 -0.14)">
     <use xlink:href="#DejaVuSans-52"/>
     <use xlink:href="#DejaVuSans-5a" x="69.482422"/>
    </g>
   </g>
   <g id="text_73">
    <!-- RZ -->
    <g transform="translate(2510.341094 219.863125) scale(0.14 -0.14)">
     <use xlink:href="#DejaVuSans-52"/>
     <use xlink:href="#DejaVuSans-5a" x="69.482422"/>
    </g>
   </g>
   <g id="text_74">
    <!-- RZ -->
    <g transform="translate(2510.341094 291.863125) scale(0.14 -0.14)">
     <use xlink:href="#DejaVuSans-52"/>
     <use xlink:href="#DejaVuSans-5a" x="69.482422"/>
    </g>
   </g>
   <g id="text_75">
    <!-- RZ -->
    <g transform="translate(2510.341094 363.863125) scale(0.14 -0.14)">
     <use xlink:href="#DejaVuSans-52"/>
     <use xlink:href="#DejaVuSans-5a" x="69.482422"/>
    </g>
   </g>
   <g id="text_76">
    <!-- RX -->
    <g transform="translate(2582.341094 75.863125) scale(0.14 -0.14)">
     <use xlink:href="#DejaVuSans-52"/>
     <use xlink:href="#DejaVuSans-58" x="69.482422"/>
    </g>
   </g>
   <g id="text_77">
    <!-- RX -->
    <g transform="translate(2582.341094 147.863125) scale(0.14 -0.14)">
     <use xlink:href="#DejaVuSans-52"/>
     <use xlink:href="#DejaVuSans-58" x="69.482422"/>
    </g>
   </g>
   <g id="text_78">
    <!-- RX -->
    <g transform="translate(2582.341094 219.863125) scale(0.14 -0.14)">
     <use xlink:href="#DejaVuSans-52"/>
     <use xlink:href="#DejaVuSans-58" x="69.482422"/>
    </g>
   </g>
   <g id="text_79">
    <!-- RX -->
    <g transform="translate(2582.341094 291.863125) scale(0.14 -0.14)">
     <use xlink:href="#DejaVuSans-52"/>
     <use xlink:href="#DejaVuSans-58" x="69.482422"/>
    </g>
   </g>
   <g id="text_80">
    <!-- RX -->
    <g transform="translate(2582.341094 363.863125) scale(0.14 -0.14)">
     <use xlink:href="#DejaVuSans-52"/>
     <use xlink:href="#DejaVuSans-58" x="69.482422"/>
    </g>
   </g>
  </g>
 </g>
 <defs>
  <clipPath id="p10a416fccb">
   <rect x="0" y="0" width="3096" height="432"/>
  </clipPath>
 </defs>
</svg>
